<?xml version="1.0" encoding="utf-8"?>
<!-- Generator: Adobe Illustrator 16.0.4, SVG Export Plug-In . SVG Version: 6.00 Build 0)  -->
<!DOCTYPE svg PUBLIC "-//W3C//DTD SVG 1.1//EN" "http://www.w3.org/Graphics/SVG/1.1/DTD/svg11.dtd">
<svg version="1.1" id="Layer_1" xmlns="http://www.w3.org/2000/svg" xmlns:xlink="http://www.w3.org/1999/xlink" x="0px" y="0px"
	 width="181.418px" height="181.417px" viewBox="0 0 181.418 181.417" enable-background="new 0 0 181.418 181.417"
	 xml:space="preserve">
<g id="Layer_1_1_">
	<path fill="#F38B00" d="M90.709,132.393c23.021,0,41.686-18.662,41.686-41.684c0-23.023-18.662-41.687-41.686-41.687
		c-23.022,0-41.687,18.664-41.687,41.687C49.022,113.731,67.687,132.393,90.709,132.393"/>
	<g>
		<path fill="#575750" d="M42.828,59.069l7.174,4.014l-0.477,0.851l-5.271-2.95c-0.07-0.039-0.143-0.084-0.221-0.133
			c-0.077-0.05-0.155-0.102-0.235-0.155l3.107,4.973c0.107,0.161,0.117,0.32,0.029,0.477l-0.079,0.14
			c-0.087,0.157-0.228,0.231-0.421,0.224l-5.912-0.008c0.189,0.079,0.358,0.161,0.508,0.245l5.271,2.949l-0.477,0.851l-7.173-4.014
			l0.401-0.716c0.048-0.087,0.094-0.149,0.137-0.186c0.042-0.038,0.115-0.057,0.215-0.057l5.802-0.008
			c0.102,0.005,0.208,0.013,0.316,0.023c0.108,0.01,0.217,0.024,0.326,0.041c-0.071-0.084-0.141-0.169-0.209-0.255
			c-0.068-0.086-0.13-0.173-0.186-0.262l-3.049-4.901c-0.055-0.083-0.077-0.153-0.066-0.211c0.01-0.057,0.04-0.13,0.088-0.216
			L42.828,59.069z"/>
		<path fill="#575750" d="M53.757,57.189c0.229-0.251,0.391-0.515,0.485-0.79c0.095-0.276,0.128-0.552,0.1-0.828
			c-0.028-0.276-0.116-0.547-0.263-0.812c-0.147-0.265-0.348-0.513-0.603-0.745l-3.7-3.358l0.745-0.82l3.7,3.358
			c0.351,0.319,0.626,0.67,0.824,1.055c0.199,0.384,0.313,0.78,0.344,1.188c0.03,0.407-0.028,0.817-0.176,1.23
			c-0.147,0.413-0.391,0.807-0.73,1.181s-0.708,0.654-1.104,0.842c-0.396,0.187-0.8,0.286-1.21,0.296
			c-0.409,0.011-0.815-0.065-1.217-0.226c-0.402-0.16-0.778-0.4-1.13-0.719l-3.699-3.358l0.744-0.82l3.696,3.354
			c0.255,0.231,0.521,0.408,0.799,0.528c0.278,0.121,0.556,0.182,0.833,0.183c0.277,0.001,0.55-0.059,0.817-0.18
			C53.279,57.627,53.528,57.442,53.757,57.189z"/>
		<path fill="#575750" d="M62.578,49.347l0.569,0.743l-3.704,2.834l-4.997-6.527l0.879-0.673l4.428,5.784L62.578,49.347z"/>
		<path fill="#575750" d="M66.069,39.983l-2.322,1.299l3.557,6.358l-0.966,0.541l-3.558-6.357l-2.327,1.302l-0.457-0.816
			l5.617-3.143L66.069,39.983z"/>
		<path fill="#575750" d="M73.467,44.819l-1.037,0.403l-2.98-7.661l1.038-0.403L73.467,44.819z"/>
		<path fill="#575750" d="M75.892,39.917l2.741-0.719l0.22,0.837l-2.741,0.719L75.892,39.917z"/>
		<path fill="#575750" d="M84.831,33.782c0.502-0.052,0.94-0.046,1.313,0.016c0.374,0.062,0.687,0.172,0.939,0.331
			c0.253,0.159,0.448,0.365,0.584,0.618c0.137,0.254,0.223,0.546,0.256,0.877c0.021,0.202,0.009,0.398-0.036,0.589
			c-0.043,0.191-0.121,0.373-0.229,0.545c-0.109,0.172-0.254,0.333-0.433,0.479c-0.179,0.147-0.394,0.274-0.645,0.38
			c0.613,0.054,1.086,0.221,1.42,0.505c0.334,0.283,0.527,0.679,0.58,1.189c0.035,0.347,0.003,0.669-0.095,0.967
			c-0.098,0.298-0.26,0.562-0.485,0.793c-0.224,0.23-0.509,0.42-0.856,0.568c-0.346,0.148-0.747,0.246-1.204,0.292l-2.888,0.293
			l-0.831-8.178L84.831,33.782z M83.413,34.808l0.283,2.791l1.461-0.148c0.312-0.032,0.58-0.093,0.803-0.186
			c0.223-0.091,0.403-0.206,0.542-0.343c0.137-0.137,0.234-0.296,0.289-0.476c0.055-0.18,0.072-0.374,0.051-0.579
			c-0.049-0.483-0.229-0.821-0.541-1.014c-0.312-0.193-0.772-0.259-1.381-0.197L83.413,34.808z M85.834,41.054
			c0.316-0.032,0.584-0.096,0.805-0.191c0.221-0.095,0.398-0.216,0.531-0.362c0.133-0.146,0.225-0.313,0.275-0.501
			c0.05-0.188,0.064-0.39,0.042-0.607c-0.042-0.422-0.228-0.741-0.552-0.955c-0.326-0.215-0.79-0.292-1.39-0.231l-1.769,0.18
			l0.289,2.848L85.834,41.054z"/>
		<path fill="#575750" d="M97.309,41.15l-0.074,0.904l-5.053-0.38l0.618-8.197l5.05,0.38l-0.066,0.904l-3.941-0.297l-0.203,2.723
			l3.19,0.24l-0.065,0.87l-3.19-0.24l-0.212,2.797L97.309,41.15z"/>
		<path fill="#575750" d="M109.025,36.343l-5.332,7.097l-0.965-0.253l-1.148-8.802l0.859,0.226c0.098,0.025,0.168,0.07,0.213,0.133
			c0.048,0.064,0.076,0.137,0.086,0.218l0.767,6.198c0.017,0.138,0.026,0.287,0.034,0.448c0.007,0.16,0.008,0.327,0.002,0.499
			c0.079-0.153,0.158-0.298,0.238-0.436c0.08-0.137,0.16-0.263,0.242-0.375l3.711-5.021c0.037-0.057,0.098-0.104,0.176-0.141
			c0.078-0.036,0.165-0.042,0.258-0.018L109.025,36.343z"/>
		<path fill="#575750" d="M114.479,46.719l-0.392,0.818l-4.584-2.157l3.501-7.438l4.583,2.157l-0.386,0.82l-3.576-1.684
			l-1.162,2.471l2.896,1.363l-0.371,0.789l-2.896-1.364l-1.194,2.539L114.479,46.719z"/>
		<path fill="#575750" d="M121.867,52.72l-0.805-0.57c-0.166-0.117-0.242-0.267-0.229-0.451l-0.045-3.63
			c0-0.112-0.019-0.206-0.058-0.282c-0.037-0.075-0.121-0.159-0.248-0.249l-0.688-0.488l-1.981,2.8l-0.903-0.64l4.749-6.71
			l1.896,1.343c0.426,0.3,0.76,0.603,1.01,0.907c0.248,0.305,0.414,0.61,0.502,0.915c0.086,0.305,0.097,0.606,0.031,0.904
			c-0.065,0.298-0.199,0.588-0.399,0.873c-0.169,0.237-0.363,0.433-0.585,0.586c-0.219,0.153-0.459,0.261-0.717,0.325
			c-0.258,0.062-0.53,0.08-0.816,0.05c-0.286-0.029-0.579-0.105-0.881-0.229c0.07,0.147,0.103,0.313,0.099,0.498L121.867,52.72z
			 M121.216,47.066c0.265,0.186,0.519,0.318,0.765,0.396c0.248,0.079,0.479,0.107,0.697,0.086c0.219-0.021,0.42-0.088,0.604-0.202
			c0.184-0.114,0.346-0.269,0.483-0.465c0.282-0.399,0.364-0.793,0.246-1.182c-0.117-0.389-0.438-0.768-0.964-1.14l-0.993-0.702
			l-1.793,2.533L121.216,47.066z"/>
		<path fill="#575750" d="M128.627,59.428l-0.6-0.619c-0.068-0.072-0.106-0.147-0.113-0.226s0.007-0.156,0.041-0.23l0.895-1.932
			l-2.564-2.652l-1.962,0.826c-0.064,0.032-0.14,0.042-0.224,0.033c-0.084-0.01-0.158-0.049-0.225-0.118l-0.598-0.619l8.193-3.349
			l0.781,0.809L128.627,59.428z M129.21,55.641l1.509-3.252c0.045-0.096,0.1-0.206,0.165-0.327c0.065-0.123,0.14-0.249,0.222-0.38
			c-0.28,0.158-0.523,0.278-0.729,0.361l-3.297,1.392L129.21,55.641z"/>
		<path fill="#575750" d="M137.111,64.93l-2.648,1.715c-0.475-0.184-0.9-0.434-1.279-0.747s-0.72-0.704-1.021-1.173
			c-0.36-0.555-0.6-1.112-0.717-1.669c-0.115-0.558-0.121-1.094-0.018-1.611c0.105-0.517,0.32-1,0.643-1.451
			c0.322-0.451,0.744-0.845,1.266-1.182c0.525-0.34,1.061-0.568,1.6-0.684c0.541-0.115,1.064-0.121,1.572-0.017
			c0.508,0.105,0.987,0.32,1.439,0.646c0.453,0.327,0.854,0.759,1.203,1.298c0.177,0.273,0.32,0.54,0.433,0.8
			c0.11,0.26,0.194,0.514,0.247,0.762c0.054,0.248,0.082,0.492,0.084,0.731c0.003,0.24-0.016,0.478-0.055,0.712l-0.596,0.009
			c-0.091,0-0.166-0.027-0.228-0.082c-0.06-0.054-0.093-0.137-0.097-0.249c-0.004-0.106-0.008-0.23-0.008-0.371
			c0-0.141-0.018-0.302-0.051-0.483c-0.031-0.181-0.092-0.383-0.175-0.604c-0.085-0.222-0.212-0.465-0.386-0.731
			c-0.252-0.389-0.543-0.7-0.872-0.932c-0.331-0.232-0.687-0.383-1.064-0.452c-0.38-0.069-0.774-0.054-1.188,0.044
			c-0.411,0.099-0.826,0.283-1.243,0.553c-0.435,0.281-0.78,0.594-1.043,0.938c-0.263,0.345-0.438,0.709-0.529,1.094
			c-0.09,0.384-0.091,0.781-0.005,1.189c0.087,0.408,0.264,0.817,0.525,1.224c0.209,0.321,0.429,0.583,0.662,0.785
			c0.233,0.202,0.49,0.38,0.772,0.535l1.519-0.982l-0.696-1.074c-0.039-0.061-0.054-0.121-0.041-0.181
			c0.011-0.06,0.042-0.106,0.094-0.14l0.529-0.343L137.111,64.93z"/>
		<path fill="#575750" d="M138.016,74.514l-0.842,0.335l-1.908-4.691l7.615-3.098l1.906,4.691l-0.838,0.342l-1.489-3.661
			l-2.528,1.029l1.205,2.965l-0.808,0.329l-1.206-2.965l-2.6,1.057L138.016,74.514z"/>
	</g>
	<g>
		<path fill="#575750" d="M64.818,132.917c0.441,0.271,0.795,0.549,1.061,0.83c0.267,0.282,0.453,0.567,0.56,0.854
			c0.107,0.286,0.137,0.575,0.092,0.868c-0.046,0.292-0.158,0.582-0.336,0.873c-0.109,0.177-0.24,0.33-0.395,0.457
			c-0.155,0.13-0.33,0.229-0.527,0.303c-0.196,0.072-0.413,0.113-0.651,0.122c-0.237,0.009-0.491-0.022-0.761-0.093
			c0.466,0.426,0.748,0.855,0.845,1.295c0.096,0.439,0.007,0.884-0.268,1.332c-0.187,0.304-0.414,0.547-0.679,0.729
			c-0.266,0.182-0.562,0.297-0.889,0.346c-0.327,0.049-0.677,0.024-1.052-0.069c-0.375-0.095-0.762-0.265-1.164-0.511l-2.538-1.558
			l4.411-7.185L64.818,132.917z M61.112,139.473c0.278,0.17,0.536,0.284,0.776,0.345c0.239,0.059,0.458,0.07,0.658,0.034
			c0.2-0.036,0.378-0.114,0.536-0.237c0.158-0.121,0.295-0.277,0.412-0.468c0.228-0.371,0.276-0.746,0.144-1.124
			c-0.132-0.378-0.462-0.729-0.99-1.052l-1.554-0.954l-1.536,2.502L61.112,139.473z M63.023,132.875l-1.505,2.451l1.284,0.786
			c0.273,0.171,0.531,0.285,0.77,0.351c0.239,0.062,0.458,0.082,0.655,0.056c0.198-0.024,0.375-0.095,0.532-0.208
			c0.157-0.111,0.291-0.26,0.401-0.439c0.261-0.424,0.324-0.812,0.19-1.164c-0.134-0.352-0.468-0.69-1.003-1.021L63.023,132.875z"/>
		<path fill="#575750" d="M70.855,144.19c0.327,0.123,0.64,0.177,0.938,0.162c0.298-0.017,0.573-0.089,0.826-0.222
			c0.252-0.133,0.476-0.318,0.671-0.562c0.197-0.239,0.356-0.526,0.479-0.856l1.785-4.803l1.064,0.395l-1.784,4.805
			c-0.169,0.454-0.399,0.852-0.689,1.188s-0.623,0.597-0.999,0.779c-0.376,0.187-0.789,0.287-1.239,0.303
			c-0.45,0.019-0.917-0.062-1.403-0.244c-0.485-0.18-0.893-0.424-1.223-0.729c-0.329-0.306-0.577-0.653-0.744-1.038
			c-0.166-0.387-0.249-0.802-0.25-1.244c-0.001-0.443,0.083-0.895,0.252-1.351l1.785-4.804l1.064,0.396l-1.782,4.798
			c-0.123,0.332-0.189,0.652-0.197,0.963c-0.009,0.312,0.039,0.599,0.144,0.862c0.104,0.265,0.266,0.503,0.483,0.71
			C70.256,143.905,70.528,144.07,70.855,144.19z"/>
		<path fill="#575750" d="M84.103,141.16c-0.045,0.051-0.09,0.088-0.136,0.109c-0.045,0.021-0.098,0.027-0.155,0.018
			c-0.066-0.011-0.138-0.057-0.215-0.139c-0.078-0.082-0.176-0.172-0.295-0.275c-0.12-0.102-0.268-0.201-0.443-0.299
			c-0.176-0.101-0.397-0.172-0.665-0.218c-0.25-0.044-0.478-0.049-0.681-0.015c-0.203,0.035-0.379,0.098-0.529,0.191
			c-0.149,0.094-0.271,0.213-0.364,0.356c-0.093,0.146-0.155,0.31-0.187,0.489c-0.04,0.232-0.016,0.436,0.071,0.606
			c0.087,0.173,0.216,0.329,0.384,0.472c0.168,0.14,0.365,0.271,0.589,0.392c0.224,0.12,0.453,0.245,0.688,0.373
			s0.461,0.267,0.681,0.413c0.219,0.148,0.408,0.318,0.568,0.515c0.159,0.194,0.275,0.42,0.348,0.675
			c0.073,0.256,0.079,0.557,0.02,0.899c-0.063,0.362-0.185,0.694-0.363,0.991c-0.18,0.297-0.408,0.543-0.687,0.738
			c-0.279,0.193-0.603,0.328-0.972,0.402c-0.37,0.075-0.774,0.074-1.215-0.002c-0.541-0.094-1.015-0.277-1.421-0.549
			c-0.407-0.271-0.737-0.602-0.993-0.987l0.417-0.478c0.038-0.036,0.082-0.065,0.131-0.088c0.049-0.021,0.101-0.026,0.156-0.018
			c0.049,0.01,0.104,0.039,0.16,0.09c0.057,0.053,0.12,0.116,0.19,0.192c0.071,0.075,0.151,0.159,0.243,0.251
			c0.091,0.092,0.199,0.18,0.321,0.266c0.122,0.084,0.265,0.161,0.428,0.231c0.163,0.071,0.351,0.124,0.563,0.159
			c0.267,0.048,0.511,0.053,0.732,0.015c0.221-0.036,0.416-0.108,0.584-0.218c0.168-0.107,0.307-0.248,0.416-0.42
			c0.109-0.172,0.184-0.371,0.224-0.602c0.043-0.25,0.022-0.466-0.063-0.646c-0.086-0.181-0.212-0.341-0.379-0.481
			s-0.364-0.269-0.591-0.387c-0.226-0.116-0.456-0.236-0.689-0.357c-0.234-0.121-0.461-0.258-0.683-0.402
			c-0.221-0.146-0.41-0.317-0.567-0.518c-0.156-0.197-0.27-0.432-0.341-0.699c-0.071-0.271-0.074-0.588-0.01-0.955
			c0.051-0.293,0.157-0.567,0.319-0.822c0.162-0.256,0.37-0.469,0.625-0.643c0.255-0.176,0.554-0.301,0.895-0.371
			c0.341-0.072,0.718-0.072,1.132-0.002c0.463,0.082,0.873,0.229,1.228,0.44c0.355,0.214,0.654,0.483,0.895,0.812L84.103,141.16z"/>
		<path fill="#575750" d="M88.854,148.623l-1.141-0.047l0.348-8.425l1.141,0.048L88.854,148.623z"/>
		<path fill="#575750" d="M99.758,139.512l0.951,8.377l-0.566,0.063c-0.09,0.012-0.168,0.004-0.231-0.021s-0.128-0.069-0.195-0.138
			l-5.562-5.764c0.019,0.098,0.035,0.192,0.051,0.284c0.016,0.095,0.025,0.183,0.036,0.263l0.677,5.969l-0.994,0.113l-0.949-8.377
			l0.584-0.066c0.051-0.006,0.094-0.008,0.129-0.006s0.067,0.008,0.098,0.02c0.027,0.01,0.059,0.025,0.089,0.049
			s0.062,0.053,0.099,0.088l5.562,5.756c-0.021-0.102-0.036-0.197-0.054-0.293c-0.018-0.095-0.029-0.185-0.039-0.271l-0.676-5.935
			L99.758,139.512z"/>
		<path fill="#575750" d="M110.493,144.269l0.271,0.889l-4.957,1.551l-2.518-8.047l4.958-1.55l0.278,0.886l-3.868,1.211l0.836,2.674
			l3.132-0.98l0.268,0.854l-3.134,0.979l0.859,2.746L110.493,144.269z"/>
		<path fill="#575750" d="M115.598,135.089c-0.005,0.068-0.02,0.125-0.043,0.172c-0.022,0.044-0.062,0.08-0.113,0.105
			c-0.061,0.03-0.146,0.036-0.256,0.018c-0.11-0.018-0.244-0.032-0.4-0.043c-0.157-0.012-0.336-0.004-0.536,0.023
			c-0.199,0.025-0.42,0.1-0.662,0.223c-0.228,0.115-0.412,0.248-0.554,0.396c-0.143,0.147-0.245,0.308-0.309,0.47
			c-0.064,0.166-0.092,0.332-0.078,0.506c0.012,0.172,0.061,0.34,0.144,0.504c0.104,0.209,0.246,0.357,0.418,0.443
			c0.174,0.086,0.37,0.135,0.589,0.146c0.221,0.012,0.455-0.002,0.707-0.038c0.252-0.038,0.51-0.074,0.773-0.111
			c0.265-0.036,0.529-0.062,0.793-0.075c0.265-0.013,0.519,0.012,0.764,0.073c0.243,0.06,0.471,0.171,0.682,0.333
			c0.213,0.16,0.396,0.396,0.555,0.708c0.166,0.329,0.268,0.666,0.302,1.013c0.034,0.344-0.002,0.68-0.108,1.002
			c-0.107,0.321-0.287,0.623-0.537,0.904c-0.25,0.28-0.576,0.521-0.977,0.725c-0.49,0.248-0.979,0.385-1.467,0.41
			c-0.488,0.024-0.95-0.041-1.387-0.197l0.049-0.633c0.01-0.054,0.027-0.103,0.054-0.148c0.026-0.047,0.065-0.082,0.114-0.107
			c0.046-0.021,0.105-0.029,0.183-0.022c0.077,0.008,0.165,0.021,0.269,0.04c0.102,0.019,0.217,0.037,0.345,0.056
			c0.127,0.019,0.268,0.024,0.416,0.021c0.147-0.004,0.31-0.027,0.481-0.068c0.172-0.042,0.355-0.109,0.547-0.209
			c0.242-0.121,0.44-0.264,0.596-0.426c0.156-0.162,0.269-0.338,0.338-0.524c0.07-0.187,0.099-0.382,0.083-0.585
			c-0.015-0.203-0.075-0.408-0.181-0.615c-0.113-0.228-0.26-0.388-0.438-0.479c-0.177-0.095-0.374-0.146-0.591-0.159
			c-0.218-0.014-0.453,0.002-0.704,0.044c-0.251,0.041-0.507,0.083-0.768,0.125c-0.262,0.042-0.522,0.069-0.787,0.085
			c-0.267,0.016-0.521-0.009-0.764-0.074c-0.244-0.066-0.476-0.186-0.693-0.357c-0.217-0.176-0.409-0.428-0.577-0.76
			c-0.136-0.266-0.214-0.549-0.237-0.851c-0.021-0.3,0.018-0.599,0.116-0.89c0.103-0.293,0.267-0.57,0.496-0.832
			c0.231-0.262,0.532-0.486,0.907-0.676c0.418-0.215,0.834-0.34,1.248-0.383c0.41-0.041,0.812-0.002,1.203,0.116L115.598,135.089z"
			/>
		<path fill="#575750" d="M122.369,130.535c0.006,0.067,0.001,0.127-0.016,0.176c-0.017,0.047-0.049,0.088-0.097,0.123
			c-0.053,0.039-0.136,0.059-0.248,0.059c-0.112-0.001-0.245,0.006-0.403,0.021c-0.156,0.014-0.332,0.051-0.524,0.108
			c-0.192,0.06-0.397,0.166-0.617,0.325c-0.206,0.15-0.366,0.311-0.483,0.479c-0.116,0.17-0.193,0.342-0.229,0.516
			c-0.037,0.172-0.036,0.342,0.004,0.51c0.039,0.167,0.113,0.326,0.222,0.475c0.14,0.19,0.301,0.313,0.485,0.371
			c0.185,0.059,0.386,0.074,0.604,0.051c0.218-0.022,0.449-0.072,0.69-0.148c0.242-0.077,0.49-0.156,0.745-0.235
			c0.257-0.077,0.514-0.146,0.771-0.2c0.259-0.055,0.513-0.072,0.764-0.051c0.252,0.021,0.492,0.096,0.729,0.221
			c0.234,0.125,0.455,0.328,0.659,0.61c0.218,0.298,0.37,0.614,0.459,0.949c0.089,0.337,0.106,0.672,0.054,1.007
			c-0.056,0.336-0.184,0.662-0.387,0.98c-0.203,0.316-0.484,0.606-0.847,0.871c-0.442,0.322-0.905,0.535-1.384,0.639
			s-0.943,0.111-1.399,0.025l-0.053-0.631c0-0.054,0.01-0.104,0.028-0.156c0.02-0.049,0.052-0.09,0.097-0.123
			c0.041-0.029,0.1-0.047,0.176-0.053c0.076-0.004,0.167-0.007,0.271-0.004c0.104,0.002,0.22,0.002,0.35,0
			c0.129-0.002,0.27-0.018,0.414-0.047c0.146-0.029,0.3-0.076,0.466-0.146c0.163-0.067,0.332-0.166,0.506-0.293
			c0.22-0.158,0.392-0.33,0.521-0.517c0.127-0.184,0.211-0.374,0.248-0.569c0.039-0.196,0.035-0.396-0.012-0.594
			c-0.047-0.197-0.14-0.391-0.274-0.576c-0.149-0.207-0.32-0.342-0.511-0.406c-0.188-0.062-0.393-0.082-0.607-0.061
			c-0.217,0.021-0.447,0.073-0.688,0.155c-0.242,0.081-0.488,0.163-0.738,0.246c-0.252,0.083-0.506,0.153-0.764,0.21
			c-0.26,0.059-0.515,0.072-0.766,0.048c-0.252-0.024-0.499-0.104-0.741-0.243c-0.243-0.136-0.475-0.354-0.692-0.654
			c-0.176-0.241-0.299-0.508-0.369-0.801c-0.069-0.295-0.078-0.594-0.027-0.897c0.053-0.306,0.172-0.604,0.357-0.9
			c0.186-0.294,0.447-0.565,0.787-0.813c0.379-0.276,0.77-0.469,1.17-0.574c0.399-0.107,0.802-0.133,1.205-0.079L122.369,130.535z"
			/>
	</g>
	<g>
		<path fill="#FFFFFF" d="M63.054,91.417c0.114,0,0.21,0.043,0.288,0.125l0.815,0.869c-0.402,0.512-0.901,0.9-1.497,1.166
			c-0.596,0.264-1.305,0.396-2.127,0.396c-0.744,0-1.413-0.126-2.007-0.38c-0.593-0.254-1.098-0.605-1.514-1.059
			c-0.416-0.451-0.736-0.988-0.959-1.61c-0.224-0.621-0.336-1.3-0.336-2.035c0-0.494,0.054-0.963,0.161-1.408
			s0.263-0.855,0.469-1.229c0.206-0.375,0.453-0.713,0.743-1.014c0.29-0.301,0.618-0.558,0.983-0.771
			c0.365-0.212,0.764-0.374,1.195-0.486c0.432-0.112,0.892-0.167,1.381-0.167c0.365,0,0.711,0.031,1.038,0.096
			c0.327,0.063,0.631,0.153,0.915,0.267c0.283,0.114,0.544,0.252,0.784,0.414c0.24,0.163,0.456,0.339,0.647,0.531l-0.691,0.945
			c-0.042,0.06-0.094,0.112-0.158,0.157c-0.064,0.046-0.15,0.069-0.261,0.069c-0.109,0-0.22-0.039-0.332-0.117
			c-0.113-0.077-0.25-0.165-0.412-0.26c-0.162-0.095-0.365-0.183-0.609-0.26c-0.245-0.078-0.554-0.117-0.928-0.117
			c-0.416,0-0.797,0.076-1.144,0.227c-0.347,0.15-0.645,0.369-0.894,0.654c-0.249,0.286-0.442,0.636-0.579,1.052
			c-0.137,0.416-0.206,0.889-0.206,1.418c0,0.534,0.074,1.01,0.223,1.428s0.352,0.771,0.61,1.06
			c0.258,0.287,0.559,0.504,0.904,0.652c0.345,0.149,0.714,0.225,1.107,0.225c0.233,0,0.444-0.012,0.633-0.035
			c0.19-0.023,0.366-0.062,0.528-0.117c0.162-0.055,0.314-0.125,0.459-0.211c0.144-0.087,0.289-0.197,0.435-0.329
			c0.05-0.041,0.103-0.076,0.157-0.103C62.931,91.432,62.99,91.417,63.054,91.417z"/>
		<path fill="#FFFFFF" d="M67.384,93.865h-2.069v-9.94h2.069V93.865z"/>
		<path fill="#FFFFFF" d="M78.379,88.891c0,0.726-0.123,1.394-0.367,2.003c-0.244,0.609-0.589,1.133-1.034,1.572
			c-0.445,0.438-0.981,0.781-1.607,1.027c-0.625,0.246-1.319,0.371-2.082,0.371h-3.823v-9.941h3.823c0.763,0,1.457,0.123,2.082,0.37
			c0.626,0.247,1.162,0.59,1.607,1.031c0.445,0.441,0.79,0.965,1.034,1.572C78.256,87.505,78.379,88.169,78.379,88.891z
			 M76.269,88.891c0-0.521-0.069-0.989-0.205-1.405c-0.138-0.416-0.334-0.767-0.59-1.055c-0.255-0.288-0.567-0.509-0.935-0.665
			c-0.367-0.155-0.784-0.233-1.25-0.233h-1.754v6.722h1.754c0.465,0,0.882-0.078,1.25-0.231c0.368-0.151,0.68-0.374,0.935-0.664
			c0.256-0.291,0.453-0.643,0.59-1.059C76.2,89.886,76.269,89.416,76.269,88.891z"/>
		<path fill="#FFFFFF" d="M81.961,85.534v2.556h3.316v1.555h-3.316v2.61h4.261v1.609h-6.33v-9.94h6.33v1.609H81.961z"/>
		<path fill="#FFFFFF" d="M95.684,93.865h-1.855c-0.348,0-0.6-0.134-0.754-0.396l-1.891-3.049c-0.078-0.119-0.164-0.206-0.257-0.26
			c-0.094-0.055-0.232-0.083-0.415-0.083h-0.699v3.789h-2.055v-9.94h3.124c0.694,0,1.288,0.072,1.783,0.216
			c0.49,0.144,0.896,0.343,1.212,0.6c0.313,0.255,0.545,0.56,0.69,0.915c0.146,0.353,0.22,0.743,0.22,1.168
			c0,0.328-0.046,0.64-0.142,0.935c-0.093,0.294-0.229,0.562-0.406,0.805c-0.178,0.242-0.396,0.457-0.657,0.645
			c-0.261,0.187-0.558,0.337-0.892,0.452c0.133,0.073,0.256,0.161,0.371,0.264c0.113,0.103,0.217,0.225,0.308,0.367L95.684,93.865z
			 M90.867,88.63c0.333,0,0.621-0.042,0.863-0.127c0.242-0.084,0.439-0.201,0.596-0.349c0.154-0.148,0.27-0.323,0.343-0.524
			c0.072-0.201,0.108-0.42,0.108-0.658c0-0.47-0.155-0.835-0.469-1.096c-0.312-0.26-0.789-0.391-1.429-0.391h-1.068v3.145H90.867z"
			/>
		<path fill="#FFFFFF" d="M96.361,88.938h3.615v1.548h-3.615V88.938z"/>
		<path fill="#FFFFFF" d="M107.671,92.193v1.672h-5.899v-9.94h2.058v8.269L107.671,92.193L107.671,92.193z"/>
		<path fill="#FFFFFF" d="M110.994,85.534v2.556h3.314v1.555h-3.314v2.61h4.26v1.609h-6.329v-9.94h6.329v1.609H110.994z"/>
		<path fill="#FFFFFF" d="M125.701,88.891c0,0.726-0.123,1.394-0.366,2.003c-0.244,0.609-0.59,1.133-1.034,1.572
			c-0.445,0.438-0.98,0.781-1.607,1.027c-0.625,0.246-1.318,0.371-2.082,0.371h-3.821v-9.941h3.821c0.764,0,1.457,0.123,2.082,0.37
			c0.627,0.247,1.162,0.59,1.607,1.031c0.444,0.441,0.79,0.965,1.034,1.572C125.578,87.505,125.701,88.169,125.701,88.891z
			 M123.592,88.891c0-0.521-0.068-0.989-0.205-1.405s-0.334-0.767-0.591-1.055c-0.256-0.288-0.565-0.509-0.935-0.665
			c-0.367-0.155-0.784-0.233-1.25-0.233h-1.754v6.722h1.754c0.466,0,0.883-0.078,1.25-0.231c0.367-0.151,0.679-0.374,0.935-0.664
			c0.257-0.291,0.454-0.643,0.591-1.059C123.521,89.886,123.592,89.416,123.592,88.891z"/>
	</g>
	<g>
		<path fill="#A7A7A0" d="M89.288,0.727C40.238,1.488,0.709,41.479,0.709,90.708c0,49.23,39.529,89.222,88.579,89.981v-23.475
			c-36.09-0.758-65.121-30.233-65.121-66.506s29.03-65.746,65.121-66.505V0.727z"/>
		<path fill="#A7A7A0" d="M92.264,0.729v23.477c36.029,0.829,64.986,30.273,64.986,66.502c0,36.227-28.957,65.674-64.986,66.502
			v23.477c48.989-0.83,88.445-40.794,88.445-89.979S141.253,1.56,92.264,0.729z"/>
	</g>
</g>
<g id="Layer_2">
	<g>
		<path fill="#FFFFFF" d="M45.003,152.875c0.425-0.66,0.91-1.195,1.453-1.606c0.543-0.41,1.117-0.69,1.721-0.841
			c0.604-0.148,1.223-0.166,1.858-0.053c0.635,0.117,1.255,0.369,1.859,0.758c0.604,0.39,1.09,0.849,1.455,1.377
			c0.366,0.529,0.605,1.101,0.719,1.712c0.113,0.61,0.096,1.249-0.053,1.913c-0.149,0.666-0.436,1.326-0.861,1.988
			c-0.423,0.656-0.906,1.189-1.45,1.602c-0.543,0.41-1.117,0.691-1.721,0.84c-0.603,0.15-1.222,0.169-1.856,0.059
			c-0.635-0.113-1.254-0.363-1.858-0.752c-0.604-0.39-1.091-0.85-1.458-1.379c-0.368-0.531-0.608-1.103-0.72-1.716
			c-0.112-0.614-0.093-1.253,0.055-1.918C44.294,154.192,44.58,153.531,45.003,152.875z M45.644,153.287
			c-0.384,0.596-0.646,1.187-0.787,1.768c-0.141,0.582-0.167,1.136-0.077,1.66c0.089,0.523,0.289,1.012,0.599,1.459
			s0.721,0.834,1.233,1.164c0.508,0.326,1.029,0.539,1.565,0.636c0.536,0.099,1.062,0.079,1.579-0.056s1.012-0.387,1.485-0.754
			c0.473-0.367,0.901-0.85,1.285-1.445c0.387-0.6,0.648-1.19,0.786-1.772c0.137-0.579,0.16-1.134,0.069-1.657
			c-0.091-0.527-0.293-1.015-0.604-1.459c-0.311-0.445-0.721-0.832-1.228-1.158c-0.512-0.33-1.035-0.543-1.569-0.644
			c-0.535-0.099-1.059-0.081-1.574,0.056c-0.514,0.137-1.006,0.388-1.477,0.754C46.458,152.205,46.03,152.687,45.644,153.287z"/>
		<path fill="#FFFFFF" d="M39.091,140.955l0.467,0.426c0.06,0.057,0.102,0.111,0.125,0.168c0.022,0.059,0.027,0.129,0.014,0.214
			l-0.379,5.245c-0.007,0.063-0.009,0.125-0.005,0.182s0.018,0.107,0.04,0.158c0.023,0.05,0.056,0.104,0.101,0.154
			c0.044,0.055,0.104,0.115,0.178,0.184l0.981,0.898l3.105-3.393l0.546,0.499l-6.867,7.5l-1.918-1.757
			c-0.862-0.79-1.355-1.549-1.479-2.275c-0.124-0.726,0.111-1.412,0.703-2.06c0.262-0.286,0.551-0.502,0.866-0.649
			c0.316-0.146,0.648-0.223,0.998-0.23c0.348-0.008,0.707,0.052,1.073,0.18c0.367,0.128,0.732,0.322,1.097,0.585
			c-0.036-0.131-0.047-0.271-0.034-0.421L39.091,140.955z M38.945,147.796c-0.332-0.305-0.666-0.537-1.002-0.698
			c-0.336-0.162-0.663-0.251-0.981-0.271c-0.318-0.019-0.62,0.032-0.906,0.153c-0.287,0.121-0.55,0.312-0.789,0.574
			c-0.488,0.532-0.677,1.089-0.564,1.665c0.112,0.576,0.501,1.17,1.168,1.781l1.373,1.258l2.999-3.274L38.945,147.796z"/>
		<path fill="#FFFFFF" d="M27.838,134.569l2.841-2.233c0.596,0.177,1.147,0.433,1.654,0.766c0.506,0.333,0.981,0.781,1.425,1.348
			c0.498,0.633,0.848,1.277,1.05,1.936c0.203,0.656,0.266,1.303,0.19,1.938s-0.291,1.247-0.646,1.834
			c-0.355,0.588-0.842,1.125-1.459,1.609c-0.617,0.486-1.251,0.833-1.899,1.042c-0.649,0.209-1.289,0.28-1.919,0.211
			c-0.63-0.069-1.236-0.272-1.817-0.614c-0.582-0.34-1.116-0.818-1.602-1.438c-0.24-0.305-0.441-0.602-0.602-0.893
			c-0.161-0.291-0.289-0.58-0.383-0.867c-0.094-0.285-0.157-0.569-0.189-0.854c-0.033-0.285-0.041-0.578-0.026-0.876l0.373-0.037
			c0.132-0.02,0.215,0.045,0.249,0.188c0.022,0.076,0.033,0.197,0.033,0.367c0,0.172,0.027,0.385,0.082,0.641
			c0.055,0.256,0.154,0.549,0.297,0.878c0.143,0.329,0.369,0.69,0.677,1.082c0.409,0.519,0.861,0.924,1.357,1.213
			s1.014,0.462,1.556,0.513c0.542,0.055,1.097-0.016,1.667-0.203c0.571-0.189,1.132-0.502,1.686-0.938
			c0.561-0.441,1.003-0.919,1.325-1.432c0.322-0.514,0.52-1.043,0.594-1.592c0.074-0.55,0.024-1.104-0.151-1.668
			c-0.175-0.564-0.476-1.117-0.902-1.658c-0.187-0.238-0.374-0.445-0.562-0.623c-0.188-0.179-0.382-0.336-0.581-0.477
			c-0.198-0.141-0.405-0.264-0.621-0.371c-0.216-0.107-0.444-0.21-0.685-0.309l-2.152,1.693l1.204,1.53
			c0.032,0.041,0.046,0.087,0.042,0.136c-0.004,0.049-0.023,0.088-0.057,0.112l-0.316,0.249L27.838,134.569z"/>
		<path fill="#FFFFFF" d="M25.324,121.037l0.271,0.498c0.032,0.061,0.042,0.116,0.031,0.172c-0.01,0.056-0.035,0.107-0.075,0.154
			l-2.024,2.459l2.385,4.389l3.165-0.363c0.056-0.008,0.111,0,0.168,0.023c0.057,0.023,0.101,0.065,0.133,0.123l0.268,0.493
			l-10.921,1.202l-0.346-0.639L25.324,121.037z M23.154,124.777l-3.525,4.271c-0.113,0.145-0.256,0.301-0.431,0.473
			c0.115-0.029,0.225-0.055,0.332-0.074c0.106-0.02,0.207-0.033,0.301-0.041l5.496-0.633L23.154,124.777z"/>
		<path fill="#FFFFFF" d="M11.665,113.255l9.634-3.252l0.111,0.326c0.02,0.06,0.026,0.111,0.019,0.156
			c-0.007,0.047-0.03,0.096-0.067,0.148l-6.249,9.078c0.131-0.059,0.259-0.108,0.381-0.15l8.109-2.736l0.207,0.612l-9.635,3.252
			l-0.117-0.349c-0.021-0.062-0.029-0.114-0.025-0.153c0.004-0.039,0.026-0.089,0.067-0.147l6.233-9.059
			c-0.131,0.059-0.259,0.107-0.381,0.15l-8.082,2.728L11.665,113.255z"/>
		<path fill="#FFFFFF" d="M20.042,104.125l0.141,0.728l-9.981,1.937l-0.141-0.727L20.042,104.125z"/>
		<path fill="#FFFFFF" d="M16.983,91.699c-0.003-0.048,0.011-0.09,0.042-0.125l0.289-0.309c0.239,0.195,0.456,0.41,0.651,0.645
			c0.195,0.234,0.366,0.495,0.513,0.779c0.146,0.286,0.266,0.604,0.358,0.949c0.093,0.346,0.153,0.729,0.181,1.15
			c0.047,0.703-0.033,1.354-0.24,1.957c-0.208,0.603-0.523,1.127-0.947,1.578s-0.948,0.813-1.573,1.088
			c-0.625,0.275-1.33,0.438-2.114,0.49c-0.77,0.051-1.48-0.021-2.132-0.218c-0.652-0.197-1.22-0.495-1.705-0.896
			c-0.485-0.399-0.874-0.894-1.164-1.479c-0.291-0.586-0.461-1.242-0.509-1.969c-0.046-0.693,0.021-1.314,0.2-1.864
			s0.451-1.058,0.812-1.522l0.338,0.199c0.06,0.035,0.093,0.094,0.098,0.176c0.004,0.058-0.043,0.152-0.139,0.289
			c-0.097,0.135-0.201,0.322-0.312,0.562c-0.112,0.237-0.208,0.53-0.291,0.88c-0.082,0.35-0.107,0.764-0.076,1.24
			c0.041,0.611,0.183,1.164,0.428,1.66c0.244,0.494,0.574,0.912,0.991,1.252c0.416,0.34,0.913,0.594,1.491,0.762
			c0.578,0.168,1.218,0.229,1.921,0.182c0.717-0.048,1.351-0.193,1.9-0.439c0.55-0.245,1.008-0.562,1.374-0.951
			c0.366-0.391,0.636-0.838,0.811-1.348c0.175-0.508,0.244-1.049,0.206-1.623c-0.024-0.362-0.07-0.686-0.136-0.967
			c-0.067-0.281-0.156-0.537-0.268-0.771c-0.111-0.231-0.244-0.446-0.396-0.644c-0.152-0.195-0.329-0.389-0.528-0.576
			c-0.021-0.023-0.038-0.045-0.051-0.069C16.993,91.744,16.985,91.722,16.983,91.699z"/>
		<path fill="#FFFFFF" d="M16.38,71.907l3.549,0.683c0.256,0.566,0.425,1.15,0.505,1.751c0.079,0.601,0.051,1.254-0.084,1.959
			c-0.152,0.791-0.41,1.478-0.774,2.061c-0.363,0.584-0.81,1.055-1.34,1.415c-0.53,0.358-1.133,0.596-1.809,0.712
			c-0.676,0.116-1.4,0.1-2.172-0.049c-0.771-0.148-1.449-0.399-2.032-0.752c-0.583-0.354-1.055-0.792-1.416-1.312
			c-0.361-0.521-0.603-1.112-0.727-1.775c-0.125-0.663-0.112-1.38,0.037-2.152c0.074-0.381,0.167-0.728,0.281-1.04
			c0.113-0.312,0.247-0.597,0.402-0.855c0.154-0.258,0.329-0.494,0.524-0.705c0.194-0.211,0.409-0.409,0.644-0.593l0.273,0.257
			c0.1,0.087,0.107,0.191,0.021,0.311c-0.042,0.065-0.127,0.154-0.256,0.265c-0.129,0.112-0.271,0.272-0.429,0.481
			c-0.157,0.209-0.313,0.476-0.468,0.799c-0.155,0.324-0.279,0.73-0.374,1.22c-0.125,0.649-0.135,1.256-0.028,1.82
			c0.106,0.565,0.317,1.068,0.631,1.513c0.315,0.443,0.73,0.818,1.247,1.125s1.12,0.527,1.812,0.66
			c0.701,0.135,1.351,0.156,1.949,0.064c0.598-0.093,1.129-0.291,1.593-0.594c0.463-0.304,0.85-0.706,1.161-1.207
			c0.312-0.501,0.532-1.09,0.662-1.768c0.058-0.296,0.091-0.574,0.102-0.833c0.011-0.258,0.004-0.509-0.021-0.75
			c-0.024-0.242-0.066-0.479-0.126-0.713c-0.06-0.233-0.132-0.472-0.216-0.718l-2.688-0.518l-0.368,1.913
			c-0.01,0.052-0.035,0.093-0.075,0.121c-0.04,0.029-0.08,0.04-0.123,0.031l-0.395-0.076L16.38,71.907z"/>
		<path fill="#FFFFFF" d="M24.729,61.756l-0.22,0.593c-0.028,0.077-0.064,0.136-0.108,0.178s-0.108,0.074-0.192,0.093l-5.002,1.621
			c-0.063,0.018-0.119,0.039-0.169,0.063c-0.05,0.024-0.095,0.057-0.131,0.096c-0.038,0.04-0.074,0.091-0.107,0.152
			c-0.033,0.062-0.067,0.14-0.102,0.234l-0.464,1.246l4.311,1.603l-0.257,0.694l-9.531-3.544l0.907-2.438
			c0.407-1.095,0.925-1.837,1.552-2.225c0.627-0.388,1.352-0.429,2.173-0.124c0.364,0.135,0.673,0.322,0.927,0.56
			c0.254,0.237,0.451,0.516,0.59,0.836c0.139,0.319,0.218,0.674,0.237,1.062c0.02,0.388-0.024,0.8-0.13,1.236
			c0.107-0.083,0.233-0.146,0.377-0.189L24.729,61.756z M18.333,64.192c0.157-0.422,0.248-0.819,0.271-1.191
			s-0.016-0.708-0.119-1.011c-0.103-0.301-0.264-0.562-0.483-0.782c-0.22-0.22-0.496-0.391-0.829-0.515
			c-0.678-0.252-1.263-0.218-1.755,0.102c-0.492,0.321-0.896,0.905-1.211,1.754l-0.649,1.745l4.163,1.548L18.333,64.192z"/>
		<path fill="#FFFFFF" d="M26.505,47.911c0.679,0.395,1.237,0.854,1.672,1.378c0.436,0.524,0.742,1.084,0.919,1.68
			c0.177,0.597,0.223,1.214,0.137,1.854c-0.086,0.64-0.31,1.27-0.671,1.892c-0.36,0.622-0.797,1.127-1.308,1.517
			c-0.512,0.39-1.07,0.655-1.676,0.797c-0.606,0.142-1.244,0.153-1.915,0.035c-0.671-0.117-1.346-0.374-2.026-0.769
			c-0.675-0.392-1.23-0.85-1.666-1.374s-0.742-1.084-0.919-1.681c-0.177-0.596-0.225-1.213-0.142-1.852
			c0.083-0.639,0.305-1.269,0.665-1.89c0.361-0.622,0.798-1.128,1.311-1.521c0.513-0.392,1.073-0.658,1.681-0.798
			c0.607-0.141,1.247-0.152,1.918-0.034C25.156,47.264,25.83,47.519,26.505,47.911z M26.123,48.569
			c-0.613-0.356-1.214-0.591-1.801-0.705c-0.587-0.114-1.142-0.114-1.662,0c-0.52,0.113-0.997,0.335-1.429,0.666
			c-0.433,0.331-0.802,0.759-1.107,1.285c-0.303,0.522-0.491,1.053-0.563,1.592c-0.072,0.54-0.029,1.065,0.129,1.575
			c0.158,0.509,0.432,0.992,0.82,1.448c0.389,0.456,0.89,0.862,1.503,1.217c0.617,0.359,1.22,0.593,1.806,0.704
			c0.586,0.11,1.141,0.108,1.662-0.007c0.521-0.116,0.998-0.339,1.428-0.671c0.431-0.332,0.797-0.758,1.101-1.28
			c0.305-0.526,0.496-1.059,0.57-1.597c0.075-0.539,0.032-1.062-0.127-1.57c-0.159-0.508-0.433-0.989-0.821-1.441
			C27.243,49.333,26.74,48.928,26.123,48.569z"/>
		<path fill="#FFFFFF" d="M34.431,30.556l5.405,9.188l-0.443,0.491L30.83,36.55c-0.115-0.052-0.229-0.111-0.344-0.176
			c0.076,0.107,0.146,0.216,0.209,0.325l4.533,8.148l-0.438,0.485l-9.695-4.435l0.409-0.454c0.093-0.104,0.201-0.126,0.322-0.067
			l7.922,3.696c0.177,0.09,0.371,0.2,0.582,0.332c-0.076-0.101-0.146-0.197-0.211-0.287c-0.063-0.09-0.12-0.18-0.168-0.269
			l-4.277-7.734c-0.026-0.05-0.038-0.105-0.034-0.166c0.003-0.062,0.027-0.117,0.073-0.167l0.135-0.149
			c0.045-0.05,0.095-0.079,0.151-0.087c0.056-0.008,0.112-0.001,0.171,0.019l8.129,3.467c0.09,0.036,0.185,0.081,0.285,0.135
			c0.099,0.054,0.201,0.112,0.306,0.175c-0.073-0.098-0.142-0.191-0.208-0.28c-0.065-0.088-0.126-0.173-0.181-0.255l-4.484-7.504
			c-0.029-0.046-0.042-0.101-0.036-0.164s0.03-0.12,0.076-0.169L34.431,30.556z"/>
		<path fill="#FFFFFF" d="M44.7,23.368l-2.846,2.157l5.763,7.606l-0.59,0.447l-5.764-7.606l-2.863,2.17l-0.378-0.499l6.3-4.774
			L44.7,23.368z"/>
		<path fill="#FFFFFF" d="M55.977,16.216l4.738,8.997l-0.655,0.345l-2.271-4.311l-5.633,2.966l2.271,4.311l-0.655,0.345
			l-4.738-8.997l0.655-0.345l2.21,4.197l5.633-2.967l-2.21-4.197L55.977,16.216z"/>
	</g>
	<g>
		<path fill="#FFFFFF" d="M114.107,13.262c-0.062,0.068-0.133,0.091-0.211,0.07c-0.062-0.016-0.127-0.08-0.198-0.19
			c-0.072-0.111-0.177-0.24-0.31-0.388c-0.136-0.147-0.312-0.297-0.531-0.45c-0.221-0.153-0.508-0.277-0.864-0.372
			c-0.354-0.095-0.685-0.128-0.981-0.099c-0.298,0.03-0.561,0.108-0.791,0.235c-0.229,0.127-0.423,0.293-0.58,0.5
			c-0.156,0.206-0.268,0.437-0.336,0.69c-0.089,0.333-0.092,0.628-0.009,0.883c0.083,0.255,0.22,0.49,0.41,0.705
			c0.19,0.215,0.419,0.413,0.687,0.595c0.267,0.182,0.539,0.366,0.823,0.551c0.281,0.185,0.554,0.377,0.815,0.579
			c0.261,0.201,0.482,0.425,0.664,0.672c0.183,0.247,0.308,0.524,0.378,0.833c0.069,0.309,0.05,0.665-0.06,1.067
			c-0.109,0.412-0.283,0.781-0.521,1.106c-0.239,0.326-0.528,0.587-0.868,0.784c-0.34,0.197-0.727,0.321-1.156,0.373
			c-0.429,0.051-0.895,0.01-1.395-0.124c-0.647-0.173-1.176-0.436-1.581-0.79c-0.406-0.353-0.733-0.776-0.978-1.269l0.274-0.253
			c0.074-0.055,0.149-0.072,0.222-0.052c0.043,0.011,0.088,0.053,0.139,0.126c0.05,0.072,0.111,0.163,0.182,0.268
			s0.159,0.223,0.262,0.353c0.105,0.129,0.232,0.258,0.383,0.384c0.149,0.127,0.328,0.248,0.535,0.363
			c0.207,0.115,0.452,0.21,0.733,0.285c0.39,0.104,0.753,0.137,1.09,0.101c0.337-0.036,0.638-0.128,0.903-0.275
			c0.264-0.148,0.488-0.347,0.676-0.597c0.186-0.25,0.32-0.535,0.404-0.854c0.095-0.348,0.101-0.652,0.019-0.914
			c-0.081-0.263-0.218-0.5-0.409-0.712c-0.191-0.212-0.42-0.408-0.686-0.589c-0.268-0.18-0.544-0.36-0.827-0.54
			c-0.284-0.18-0.558-0.369-0.817-0.568c-0.264-0.199-0.483-0.423-0.666-0.672c-0.182-0.25-0.307-0.532-0.371-0.85
			c-0.066-0.318-0.045-0.688,0.067-1.109c0.089-0.329,0.233-0.629,0.442-0.901c0.205-0.272,0.461-0.493,0.764-0.663
			c0.303-0.17,0.65-0.278,1.042-0.324c0.394-0.046,0.815-0.01,1.269,0.112c0.51,0.136,0.945,0.338,1.308,0.609
			c0.36,0.27,0.664,0.616,0.909,1.039L114.107,13.262z"/>
		<path fill="#FFFFFF" d="M121.383,24.884l-0.244,0.56l-5.64-2.311l3.856-9.408l5.639,2.311l-0.23,0.565l-4.955-2.031l-1.559,3.803
			l4.123,1.689l-0.229,0.552l-4.121-1.69l-1.607,3.923L121.383,24.884z"/>
		<path fill="#FFFFFF" d="M129.292,29.181l-0.308,0.545l-4.836-2.731l4.998-8.854l0.646,0.363l-4.69,8.311L129.292,29.181z"/>
		<path fill="#FFFFFF" d="M136.626,34.467l-0.376,0.482l-4.896-3.629l6.057-8.168l4.895,3.63l-0.361,0.491l-4.301-3.189
			l-2.449,3.302l3.58,2.654l-0.355,0.479l-3.578-2.653l-2.525,3.406L136.626,34.467z"/>
		<path fill="#FFFFFF" d="M145.062,40.894c0.033,0.033,0.051,0.074,0.051,0.122l-0.01,0.422c-0.31,0.013-0.613-0.002-0.916-0.047
			c-0.301-0.045-0.603-0.124-0.9-0.24c-0.301-0.115-0.6-0.271-0.898-0.468c-0.3-0.197-0.603-0.443-0.902-0.738
			c-0.504-0.493-0.879-1.033-1.125-1.619c-0.247-0.587-0.361-1.19-0.346-1.808c0.016-0.619,0.164-1.238,0.445-1.859
			c0.284-0.622,0.7-1.212,1.25-1.774c0.541-0.55,1.119-0.97,1.734-1.258c0.617-0.288,1.24-0.444,1.869-0.469
			c0.627-0.025,1.246,0.083,1.853,0.326c0.606,0.243,1.171,0.619,1.69,1.128c0.496,0.486,0.86,0.994,1.095,1.523
			c0.231,0.53,0.368,1.089,0.407,1.678l-0.385,0.075c-0.066,0.015-0.131-0.007-0.188-0.064c-0.041-0.04-0.071-0.144-0.089-0.309
			c-0.02-0.166-0.066-0.375-0.143-0.626s-0.199-0.535-0.369-0.85c-0.172-0.315-0.428-0.641-0.771-0.975
			c-0.438-0.429-0.913-0.747-1.427-0.954c-0.512-0.206-1.034-0.297-1.572-0.273c-0.536,0.024-1.075,0.167-1.618,0.426
			c-0.543,0.261-1.062,0.642-1.553,1.145c-0.504,0.513-0.879,1.045-1.125,1.595c-0.247,0.549-0.377,1.091-0.39,1.625
			c-0.014,0.534,0.084,1.048,0.293,1.544s0.519,0.945,0.93,1.348c0.26,0.254,0.509,0.465,0.746,0.63
			c0.234,0.165,0.475,0.297,0.713,0.396c0.236,0.099,0.479,0.172,0.725,0.216c0.243,0.045,0.504,0.071,0.777,0.078
			c0.029,0.003,0.059,0.009,0.084,0.017C145.023,40.865,145.045,40.876,145.062,40.894z"/>
		<path fill="#FFFFFF" d="M157.723,44.226l-2.179-2.832l-7.563,5.818l-0.451-0.587l7.563-5.818l-2.19-2.848l0.496-0.381l4.818,6.266
			L157.723,44.226z"/>
		<path fill="#FFFFFF" d="M152.05,53.158l-0.391-0.628l8.64-5.362l0.393,0.629L152.05,53.158z"/>
		<path fill="#FFFFFF" d="M166.713,59.338l-10.982,0.613l-0.282-0.59l7.354-8.181l0.253,0.525c0.028,0.061,0.036,0.118,0.021,0.173
			c-0.014,0.054-0.041,0.104-0.082,0.151l-6.109,6.771c-0.078,0.08-0.162,0.163-0.255,0.25c-0.092,0.087-0.187,0.172-0.282,0.256
			c0.123-0.028,0.246-0.053,0.369-0.075c0.122-0.021,0.241-0.035,0.354-0.042l9.102-0.532c0.057-0.005,0.112,0.005,0.167,0.032
			c0.056,0.026,0.099,0.07,0.127,0.13L166.713,59.338z"/>
		<path fill="#FFFFFF" d="M160.889,72.026l-0.588,0.171l-1.844-5.809l9.691-3.077l1.845,5.808l-0.583,0.185l-1.619-5.103
			l-3.918,1.244l1.35,4.247l-0.57,0.18l-1.346-4.246l-4.043,1.282L160.889,72.026z"/>
		<path fill="#FFFFFF" d="M162.704,87.772l-0.06-0.564c-0.006-0.067,0.006-0.124,0.037-0.17c0.03-0.046,0.074-0.085,0.129-0.114
			l2.816-1.488l-0.511-4.968l-3.06-0.885c-0.056-0.014-0.104-0.042-0.146-0.086c-0.043-0.043-0.068-0.099-0.075-0.166l-0.058-0.558
			l10.541,3.1l0.074,0.722L162.704,87.772z M166.146,85.158l4.9-2.584c0.159-0.089,0.352-0.179,0.579-0.27
			c-0.118-0.017-0.229-0.036-0.335-0.059s-0.204-0.049-0.293-0.078l-5.316-1.535L166.146,85.158z"/>
		<path fill="#FFFFFF" d="M164.104,97.767c-0.002,0.049-0.021,0.088-0.056,0.12l-0.319,0.274c-0.217-0.221-0.408-0.457-0.578-0.711
			s-0.312-0.531-0.428-0.83c-0.113-0.3-0.199-0.627-0.254-0.981c-0.056-0.354-0.072-0.742-0.057-1.163
			c0.029-0.704,0.179-1.346,0.449-1.92c0.271-0.576,0.642-1.066,1.111-1.468c0.469-0.403,1.029-0.707,1.682-0.913
			c0.648-0.206,1.367-0.292,2.152-0.26c0.771,0.032,1.469,0.181,2.096,0.446c0.627,0.266,1.16,0.623,1.6,1.073
			s0.773,0.981,0.999,1.595c0.228,0.614,0.325,1.284,0.295,2.012c-0.028,0.694-0.161,1.306-0.399,1.832
			c-0.236,0.526-0.561,1.002-0.972,1.426l-0.313-0.234c-0.057-0.04-0.082-0.102-0.077-0.184c0.002-0.057,0.058-0.148,0.169-0.272
			c0.109-0.126,0.232-0.3,0.369-0.524s0.266-0.506,0.385-0.844s0.188-0.744,0.208-1.225c0.024-0.613-0.058-1.178-0.246-1.697
			c-0.19-0.52-0.474-0.968-0.851-1.352c-0.379-0.381-0.846-0.688-1.401-0.917c-0.556-0.229-1.187-0.359-1.89-0.388
			c-0.719-0.029-1.363,0.048-1.938,0.233s-1.062,0.451-1.468,0.799c-0.406,0.349-0.724,0.765-0.951,1.252
			c-0.229,0.486-0.354,1.017-0.379,1.593c-0.015,0.362-0.004,0.688,0.032,0.976c0.035,0.288,0.098,0.552,0.184,0.796
			c0.085,0.242,0.193,0.47,0.325,0.684c0.129,0.211,0.283,0.42,0.461,0.629c0.019,0.024,0.033,0.049,0.045,0.072
			C164.102,97.718,164.105,97.744,164.104,97.767z"/>
		<path fill="#FFFFFF" d="M157.954,109.751l0.121-0.605c0.036-0.184,0.128-0.32,0.269-0.415l2.727-1.663
			c-0.062-0.32-0.094-0.652-0.092-0.994c0-0.343,0.037-0.695,0.111-1.062c0.143-0.705,0.393-1.324,0.752-1.856
			c0.359-0.533,0.805-0.965,1.333-1.293c0.527-0.328,1.128-0.543,1.802-0.646c0.674-0.104,1.396-0.077,2.166,0.078
			c0.767,0.154,1.438,0.41,2.02,0.768c0.58,0.355,1.05,0.79,1.408,1.298c0.359,0.507,0.603,1.077,0.729,1.709
			c0.126,0.632,0.118,1.3-0.024,2.003c-0.142,0.704-0.395,1.324-0.754,1.86c-0.359,0.534-0.805,0.968-1.334,1.296
			c-0.533,0.327-1.135,0.542-1.809,0.646c-0.673,0.104-1.393,0.078-2.156-0.076c-0.504-0.104-0.966-0.248-1.39-0.438
			s-0.804-0.418-1.138-0.683c-0.336-0.262-0.623-0.559-0.865-0.889c-0.241-0.33-0.434-0.686-0.576-1.065L157.954,109.751z
			 M166.994,102.026c-0.7-0.142-1.346-0.17-1.938-0.086c-0.592,0.082-1.113,0.263-1.572,0.539c-0.455,0.276-0.834,0.642-1.137,1.095
			c-0.302,0.452-0.513,0.973-0.632,1.564c-0.12,0.596-0.131,1.162-0.026,1.695c0.101,0.533,0.31,1.017,0.623,1.445
			c0.313,0.432,0.727,0.797,1.24,1.102c0.512,0.305,1.118,0.527,1.818,0.668c0.695,0.142,1.339,0.172,1.934,0.091
			c0.592-0.08,1.115-0.259,1.572-0.531c0.456-0.274,0.836-0.638,1.141-1.09s0.517-0.976,0.637-1.572
			c0.119-0.593,0.127-1.155,0.021-1.688c-0.104-0.534-0.312-1.018-0.627-1.449c-0.312-0.434-0.727-0.803-1.24-1.109
			C168.294,102.392,167.688,102.167,166.994,102.026z"/>
		<path fill="#FFFFFF" d="M158.342,116.705c-0.176,0.455-0.254,0.895-0.232,1.315c0.021,0.42,0.123,0.81,0.309,1.169
			c0.188,0.359,0.443,0.678,0.775,0.957c0.332,0.277,0.719,0.503,1.16,0.673l5.869,2.257l-0.264,0.686l-5.868-2.258
			c-0.522-0.2-0.979-0.473-1.37-0.812c-0.39-0.339-0.693-0.729-0.912-1.17c-0.218-0.44-0.338-0.921-0.357-1.438
			c-0.021-0.521,0.074-1.057,0.287-1.61c0.214-0.554,0.502-1.019,0.865-1.388c0.363-0.371,0.772-0.647,1.23-0.828
			c0.455-0.182,0.943-0.268,1.461-0.258s1.039,0.113,1.561,0.315l5.869,2.256l-0.266,0.691l-5.861-2.255
			c-0.443-0.17-0.881-0.264-1.312-0.278c-0.434-0.015-0.838,0.048-1.217,0.188c-0.377,0.14-0.715,0.358-1.016,0.656
			C158.754,115.871,158.518,116.248,158.342,116.705z"/>
		<path fill="#FFFFFF" d="M154.281,124.354l0.344-0.655l9.007,4.719l-0.343,0.654L154.281,124.354z"/>
		<path fill="#FFFFFF" d="M157.012,137.048c-0.044-0.08-0.044-0.154,0-0.223c0.034-0.054,0.115-0.097,0.242-0.13
			c0.129-0.032,0.283-0.091,0.467-0.173c0.182-0.081,0.379-0.202,0.594-0.363c0.213-0.16,0.42-0.396,0.623-0.703
			c0.201-0.311,0.334-0.609,0.398-0.902c0.064-0.292,0.074-0.566,0.023-0.825c-0.047-0.258-0.146-0.493-0.293-0.707
			c-0.146-0.213-0.33-0.392-0.551-0.535c-0.289-0.188-0.566-0.284-0.836-0.284c-0.269-0.002-0.535,0.057-0.798,0.17
			c-0.264,0.113-0.522,0.27-0.778,0.465c-0.258,0.195-0.519,0.398-0.781,0.609c-0.264,0.211-0.532,0.409-0.807,0.594
			c-0.271,0.188-0.554,0.326-0.845,0.422c-0.292,0.097-0.595,0.129-0.909,0.099c-0.314-0.031-0.646-0.16-0.994-0.388
			c-0.358-0.234-0.654-0.516-0.889-0.844c-0.236-0.328-0.395-0.684-0.475-1.067c-0.079-0.386-0.077-0.79,0.008-1.214
			c0.087-0.426,0.271-0.854,0.554-1.287c0.367-0.562,0.782-0.979,1.245-1.256c0.463-0.274,0.967-0.453,1.512-0.531l0.153,0.341
			c0.028,0.088,0.022,0.163-0.021,0.228c-0.022,0.037-0.078,0.067-0.162,0.092c-0.084,0.023-0.188,0.054-0.312,0.089
			c-0.122,0.034-0.263,0.081-0.417,0.14c-0.156,0.059-0.316,0.139-0.484,0.241c-0.166,0.104-0.336,0.233-0.512,0.396
			c-0.173,0.162-0.341,0.365-0.5,0.608c-0.221,0.338-0.365,0.672-0.438,1.004c-0.07,0.33-0.076,0.646-0.021,0.942
			c0.058,0.299,0.177,0.574,0.356,0.83c0.18,0.254,0.408,0.472,0.684,0.652c0.303,0.196,0.59,0.297,0.863,0.301
			c0.273,0.006,0.542-0.049,0.804-0.166c0.263-0.113,0.521-0.271,0.774-0.467c0.254-0.199,0.511-0.404,0.771-0.617
			c0.26-0.213,0.523-0.414,0.795-0.601c0.271-0.187,0.553-0.325,0.846-0.422c0.293-0.094,0.602-0.123,0.924-0.087
			c0.322,0.037,0.667,0.174,1.031,0.412c0.285,0.186,0.524,0.421,0.72,0.701c0.192,0.281,0.323,0.593,0.39,0.934
			c0.067,0.342,0.061,0.704-0.019,1.092c-0.076,0.387-0.245,0.776-0.501,1.168c-0.289,0.442-0.617,0.793-0.988,1.053
			c-0.369,0.259-0.792,0.438-1.271,0.537L157.012,137.048z"/>
		<path fill="#FFFFFF" d="M146.648,135.903l0.463-0.577l7.938,6.354l-0.462,0.579L146.648,135.903z"/>
		<path fill="#FFFFFF" d="M146.143,150.523l2.498-2.552l-6.817-6.677l0.518-0.529l6.818,6.678l2.514-2.566l0.447,0.438l-5.53,5.646
			L146.143,150.523z"/>
		<path fill="#FFFFFF" d="M136.498,146.164l0.566-0.476l6.52,7.804l-0.566,0.475L136.498,146.164z"/>
		<path fill="#FFFFFF" d="M128.488,157.996c-0.428-0.66-0.717-1.322-0.867-1.986s-0.172-1.303-0.061-1.914s0.351-1.184,0.717-1.715
			c0.365-0.531,0.851-0.992,1.453-1.385c0.604-0.391,1.221-0.645,1.854-0.76s1.252-0.102,1.855,0.047
			c0.603,0.148,1.179,0.426,1.724,0.836c0.545,0.408,1.03,0.941,1.459,1.603c0.425,0.655,0.713,1.315,0.864,1.979
			c0.149,0.664,0.17,1.301,0.059,1.914c-0.111,0.61-0.348,1.184-0.711,1.717c-0.361,0.53-0.846,0.992-1.447,1.383
			c-0.604,0.393-1.223,0.646-1.857,0.766c-0.635,0.116-1.254,0.1-1.858-0.049c-0.604-0.15-1.181-0.43-1.728-0.838
			C129.398,159.182,128.914,158.65,128.488,157.996z M129.128,157.582c0.386,0.594,0.813,1.074,1.287,1.442
			c0.474,0.367,0.967,0.618,1.481,0.752c0.514,0.134,1.041,0.149,1.576,0.054c0.534-0.101,1.059-0.314,1.568-0.646
			c0.506-0.329,0.913-0.718,1.223-1.166c0.309-0.448,0.508-0.937,0.598-1.462c0.09-0.527,0.063-1.081-0.077-1.663
			c-0.14-0.583-0.403-1.172-0.789-1.769c-0.39-0.599-0.819-1.08-1.293-1.442c-0.474-0.364-0.968-0.613-1.485-0.745
			c-0.518-0.135-1.043-0.148-1.576-0.048c-0.533,0.1-1.056,0.315-1.561,0.646c-0.512,0.329-0.921,0.719-1.23,1.164
			c-0.311,0.446-0.51,0.934-0.598,1.459c-0.087,0.524-0.061,1.076,0.081,1.655S128.738,156.982,129.128,157.582z"/>
		<path fill="#FFFFFF" d="M119.486,167.703l-4.016-9.342l0.316-0.138c0.057-0.022,0.109-0.034,0.154-0.03s0.097,0.021,0.152,0.055
			l9.553,5.5c-0.07-0.125-0.131-0.248-0.183-0.367l-3.379-7.861l0.595-0.256l4.016,9.342l-0.338,0.145
			c-0.062,0.026-0.112,0.039-0.152,0.039c-0.038-0.002-0.089-0.021-0.15-0.057l-9.531-5.484c0.069,0.125,0.131,0.248,0.182,0.367
			l3.368,7.836L119.486,167.703z"/>
		<path fill="#FFFFFF" d="M109.094,169.498c0.021-0.09,0.07-0.146,0.148-0.166c0.061-0.018,0.15,0.006,0.268,0.064
			c0.118,0.062,0.271,0.122,0.463,0.184c0.188,0.061,0.416,0.103,0.685,0.125c0.266,0.023,0.577-0.013,0.934-0.107
			c0.354-0.096,0.656-0.229,0.9-0.403c0.243-0.175,0.434-0.374,0.569-0.599c0.135-0.227,0.219-0.465,0.252-0.723
			c0.035-0.256,0.018-0.513-0.052-0.767c-0.09-0.334-0.233-0.591-0.433-0.771c-0.199-0.182-0.436-0.314-0.707-0.406
			s-0.569-0.148-0.891-0.176c-0.322-0.024-0.651-0.049-0.988-0.066c-0.338-0.02-0.67-0.051-0.997-0.096
			c-0.326-0.045-0.63-0.127-0.91-0.252c-0.28-0.123-0.528-0.301-0.743-0.533c-0.213-0.232-0.371-0.551-0.479-0.954
			c-0.111-0.412-0.146-0.819-0.1-1.22c0.045-0.4,0.164-0.771,0.36-1.111c0.196-0.341,0.47-0.641,0.817-0.898
			c0.347-0.258,0.771-0.453,1.27-0.588c0.648-0.173,1.236-0.207,1.768-0.104c0.527,0.104,1.021,0.309,1.479,0.613l-0.113,0.356
			c-0.037,0.084-0.092,0.138-0.166,0.156c-0.042,0.012-0.104-0.002-0.183-0.041c-0.079-0.038-0.177-0.086-0.291-0.142
			c-0.113-0.057-0.249-0.115-0.402-0.176c-0.155-0.061-0.329-0.107-0.522-0.145c-0.191-0.034-0.406-0.051-0.645-0.047
			s-0.496,0.043-0.777,0.119c-0.391,0.104-0.723,0.254-0.996,0.455c-0.272,0.199-0.487,0.428-0.646,0.688
			c-0.155,0.261-0.252,0.545-0.289,0.854c-0.036,0.311-0.012,0.625,0.074,0.943c0.093,0.348,0.237,0.614,0.44,0.801
			c0.199,0.188,0.437,0.324,0.707,0.414c0.272,0.088,0.568,0.145,0.891,0.168c0.32,0.022,0.648,0.041,0.984,0.057
			c0.336,0.015,0.668,0.041,0.994,0.084s0.629,0.125,0.912,0.252c0.279,0.126,0.528,0.311,0.745,0.552
			c0.216,0.242,0.38,0.574,0.492,0.996c0.087,0.328,0.108,0.662,0.065,1.001s-0.154,0.658-0.332,0.955
			c-0.18,0.299-0.426,0.564-0.742,0.8s-0.701,0.415-1.155,0.536c-0.508,0.136-0.987,0.177-1.437,0.123
			c-0.448-0.055-0.883-0.203-1.307-0.448L109.094,169.498z"/>
	</g>
</g>
</svg>
