<?xml version="1.0" encoding="utf-8"?>
<!-- Generator: Adobe Illustrator 16.0.4, SVG Export Plug-In . SVG Version: 6.00 Build 0)  -->
<!DOCTYPE svg PUBLIC "-//W3C//DTD SVG 1.1 Tiny//EN" "http://www.w3.org/Graphics/SVG/1.1/DTD/svg11-tiny.dtd">
<svg version="1.1" baseProfile="tiny" id="Layer_1" xmlns="http://www.w3.org/2000/svg" xmlns:xlink="http://www.w3.org/1999/xlink"
	 x="0px" y="0px" width="165.497px" height="35.511px" viewBox="0 0 165.497 35.511" xml:space="preserve">
<g>
	<g>
		<path fill="#F38B00" d="M8.258,19.559c-0.189-0.683-0.909-1.761-2.342-1.761c-1.428,0-2.569,1.14-2.569,3.212
			c0,1.859,0.974,3.225,2.607,3.225c1.574,0,2.177-1.2,2.491-2.021l2.131,1.113c-0.808,2.235-2.855,3.229-4.66,3.229
			c-2.876,0-5.137-2.214-5.137-5.487c0-3.168,2.279-5.485,5.216-5.485c2.612,0,3.935,1.739,4.48,2.94L8.258,19.559z"/>
		<path fill="#F38B00" d="M16.44,18.265c0-0.467-0.346-0.831-0.842-0.831c-0.48,0-0.839,0.303-0.839,0.812
			c0,0.403,0.218,0.796,0.472,1.18C15.698,19.275,16.44,19.042,16.44,18.265 M14.326,21.523c-0.699,0.407-1.352,0.871-1.352,1.745
			c0,0.872,0.734,1.597,1.711,1.597c0.218,0,0.854-0.033,1.505-0.592L14.326,21.523z M19.793,21.164
			c-0.189,1.324-0.791,2.488-1.268,3.078c0.211,0.233,0.457,0.479,1.096,0.479c0.125,0,0.189,0,0.344-0.026v1.555
			c-0.451,0.023-0.516,0.048-0.795,0.048c-1.112,0-1.551-0.284-1.957-0.645c-0.696,0.468-1.411,0.829-2.637,0.829
			c-2.735,0-3.48-1.933-3.48-3.096c0-1.582,1.084-2.498,2.392-3.242c-0.201-0.312-0.481-0.794-0.481-1.617
			c0-1.633,1.13-2.556,2.532-2.556c1.614,0,2.529,1.189,2.529,2.316c0,0.794-0.448,1.943-2.063,2.507
			c0.2,0.369,1.237,1.884,1.428,2.097c0.45-0.671,0.513-1.149,0.577-1.728H19.793z"/>
		<path fill="#F38B00" d="M28.28,19.559c-0.188-0.683-0.916-1.761-2.346-1.761c-1.428,0-2.565,1.14-2.565,3.212
			c0,1.859,0.974,3.225,2.612,3.225c1.568,0,2.173-1.2,2.483-2.021l2.132,1.113c-0.807,2.235-2.86,3.229-4.662,3.229
			c-2.875,0-5.131-2.214-5.131-5.487c0-3.168,2.278-5.485,5.217-5.485c2.608,0,3.932,1.739,4.475,2.94L28.28,19.559z"/>
		<path fill="#F38B00" d="M40.414,17.196c-0.895,0-1.74,0.335-2.319,0.995c-0.458,0.533-0.916,1.49-0.916,3.02
			c0,1.409,0.354,2.529,0.916,3.19c0.723,0.87,1.672,0.954,2.229,0.954c3.024,0,3.106-2.813,3.124-3.953
			C43.448,19.885,43.284,17.196,40.414,17.196 M44.673,25.188c0,2.546,0,3.932-0.992,4.946c-0.622,0.663-1.827,1.159-3.414,1.159
			c-0.666,0-1.93-0.077-2.944-0.864c-1.054-0.807-1.241-1.863-1.3-2.652l1.259-0.251c0.169,1.059,0.461,2.694,3.132,2.694
			c1.858,0,2.709-0.766,2.955-2.176c0.079-0.519,0.107-2.566,0.123-3.205v-0.497c-0.098,0.353-0.185,0.644-0.574,1.055
			c-0.728,0.783-1.769,1.059-2.691,1.059c-2.84,0-4.29-2.362-4.29-5.22c0-3.313,1.863-5.093,4.307-5.093
			c1.736,0,2.921,0.971,3.249,2.048v-1.82h1.182V25.188z"/>
		<path fill="#F38B00" d="M47.985,26.25h-1.202v-9.879h1.202v1.572c0.625-1.308,1.658-1.734,2.881-1.734
			c0.295,0,0.436,0.021,0.682,0.058v1.094c-0.375-0.056-0.41-0.056-0.746-0.056c-0.333,0-1.305,0.019-2.027,0.784
			c-0.769,0.85-0.769,1.859-0.789,3.894V26.25z"/>
		<path fill="#F38B00" d="M56.083,17.175c-0.869,0-1.718,0.355-2.275,1.016c-0.853,0.997-0.932,2.463-0.932,3.272
			c0,2.812,1.445,3.953,3.143,3.953c2.173,0,3.19-1.718,3.206-4.015C59.224,20.841,59.272,17.175,56.083,17.175 M56.018,26.493
			c-2.876,0-4.45-2.277-4.45-5.05c0-2.566,1.308-5.3,4.493-5.3c3.125,0,4.452,2.564,4.473,5.115
			C60.554,24.255,58.819,26.493,56.018,26.493"/>
		<path fill="#F38B00" d="M69.624,26.25h-1.227v-1.784c-0.08,0.202-0.224,0.535-0.494,0.89c-0.764,0.954-1.843,1.121-2.622,1.121
			c-1.909,0-2.717-1.205-2.971-1.824c-0.328-0.768-0.345-1.782-0.345-3.441v-4.84h1.219v5.116c0.023,2.15,0.023,3.868,2.235,3.868
			c0.563,0,1.392-0.084,2.09-0.828c0.873-0.914,0.888-1.966,0.888-3.809v-4.348h1.227V26.25z"/>
		<path fill="#F38B00" d="M73.079,23.157c0.414,1.598,1.537,2.162,2.634,2.162c2.401,0,3.061-2.493,3.061-4.122
			c0-2.138-0.973-3.921-3.061-3.921c-2.671,0-2.755,2.985-2.778,3.896C72.913,21.877,72.913,22.542,73.079,23.157 M71.737,16.371
			h1.197v1.609c0.145-0.331,0.249-0.559,0.6-0.909c0.626-0.623,1.492-0.906,2.387-0.906c3.206,0,4.119,3.124,4.119,5.178
			c0,2.664-1.448,5.134-4.102,5.134c-1.269,0-2.445-0.558-3.004-1.87v6.877h-1.197V16.371z"/>
		<path fill="#F38B00" d="M87.411,23.157c0.41,1.598,1.525,2.162,2.625,2.162c2.406,0,3.065-2.493,3.065-4.122
			c0-2.138-0.972-3.921-3.065-3.921c-2.671,0-2.752,2.985-2.77,3.896C87.242,21.877,87.242,22.542,87.411,23.157 M86.063,16.371
			h1.203v1.609c0.145-0.331,0.242-0.559,0.598-0.909c0.615-0.623,1.49-0.906,2.382-0.906c3.209,0,4.119,3.124,4.119,5.178
			c0,2.664-1.448,5.134-4.102,5.134c-1.261,0-2.442-0.558-2.997-1.87v6.877h-1.203V16.371z"/>
	</g>
	<rect x="95.792" y="11.631" fill="#F38B00" width="1.226" height="14.618"/>
	<g>
		<path fill="#F38B00" d="M106.911,24.05c-0.226,0.458-0.354,0.725-0.766,1.183c-0.328,0.353-1.2,1.26-3.189,1.26
			c-3.188,0-4.531-2.568-4.531-5.113c0-3.291,2.004-5.236,4.719-5.236c2.771,0,3.581,1.966,3.768,2.483l-1.141,0.27
			c-0.539-1.286-1.778-1.656-2.668-1.656c-1.904,0-3.357,1.468-3.357,4.076c0,1.532,0.561,4.101,3.252,4.101
			c1.016,0,2.035-0.396,2.65-1.648L106.911,24.05z"/>
	</g>
	
		<rect x="154.678" y="6.387" transform="matrix(-0.5547 -0.8321 0.8321 -0.5547 235.5886 140.0207)" fill="#F38B00" width="1.169" height="1.164"/>
	
		<rect x="143.042" y="1.01" transform="matrix(0.8306 -0.5568 0.5568 0.8306 23.4385 80.2437)" fill="#882201" width="1.166" height="1.167"/>
	
		<rect x="163.321" y="13.587" transform="matrix(-0.9474 -0.32 0.32 -0.9474 314.6558 80.0452)" fill="#FBC04E" width="1.166" height="1.167"/>
	<polygon fill="#F38B00" points="131.14,33.536 131.54,34.637 132.634,34.231 132.235,33.135 	"/>
	
		<rect x="141.452" y="8.002" transform="matrix(-0.4586 -0.8886 0.8886 -0.4586 199.6637 139.21)" fill="#FBC04E" width="1.569" height="1.567"/>
	
		<rect x="135.97" y="10.495" transform="matrix(-0.612 -0.7908 0.7908 -0.612 212.0592 127.8744)" fill="#F38B00" width="2.851" height="2.854"/>
	
		<rect x="132.233" y="14.469" transform="matrix(-0.7882 -0.6155 0.6155 -0.7882 229.0725 110.3732)" fill="#FBC04E" width="2.596" height="2.59"/>
	
		<rect x="130.136" y="18.936" transform="matrix(-0.9253 -0.3792 0.3792 -0.9253 245.0803 88.3395)" fill="#F38B00" width="2.205" height="2.202"/>
	<polygon fill="#F38B00" points="129.392,25.254 131.199,25.384 131.334,23.573 129.526,23.443 	"/>
	
		<rect x="129.724" y="27.451" transform="matrix(-0.9913 0.1316 -0.1316 -0.9913 263.4451 38.9115)" fill="#F38B00" width="1.425" height="1.424"/>
	
		<rect x="130.404" y="30.577" transform="matrix(-0.9507 0.3102 -0.3102 -0.9507 265.1783 20.1532)" fill="#F38B00" width="1.165" height="1.166"/>
	<polygon fill="#882201" points="131.094,8.004 133.632,10.432 136.064,7.896 133.524,5.46 	"/>
	
		<rect x="136.985" y="1.514" transform="matrix(-0.6114 -0.7913 0.7913 -0.6114 220.9814 115.0582)" fill="#882201" width="3.512" height="3.514"/>
	<polygon fill="#882201" points="127.393,13.51 130.071,15.253 131.817,12.579 129.141,10.834 	"/>
	
		<rect x="125.476" y="17.076" transform="matrix(-0.9462 -0.3236 0.3236 -0.9462 241.0312 77.1317)" fill="#882201" width="2.903" height="2.904"/>
	
		<rect x="124.836" y="22.658" transform="matrix(-0.9985 -0.0542 0.0542 -0.9985 250.6611 54.5764)" fill="#882201" width="2.469" height="2.465"/>
	
		<rect x="125.733" y="27.828" transform="matrix(-0.966 0.2585 -0.2585 -0.966 256.6424 23.9469)" fill="#882201" width="2.029" height="2.032"/>
	
		<rect x="132.589" y="29.935" transform="matrix(1 -0.0092 0.0092 1 -0.2739 1.2225)" fill="#882201" width="1.064" height="1.071"/>
	<polygon fill="#882201" points="148.174,10.796 148.546,13.644 151.394,13.269 151.024,10.421 	"/>
	
		<rect x="154.034" y="10.262" transform="matrix(0.0197 -0.9998 0.9998 0.0197 140.7057 166.9064)" fill="#882201" width="2.871" height="2.872"/>
	
		<rect x="143.336" y="11.939" transform="matrix(-0.311 -0.9504 0.9504 -0.311 177.0328 154.832)" fill="#882201" width="2.613" height="2.607"/>
	<polygon fill="#882201" points="138.491,14.995 139.757,16.998 141.769,15.733 140.497,13.726 	"/>
	
		<rect x="135.826" y="17.331" transform="matrix(-0.7443 -0.6679 0.6679 -0.7443 226.4316 123.3753)" fill="#882201" width="2.019" height="2.015"/>
	<polygon fill="#882201" points="133.632,22.266 135.151,22.935 135.826,21.414 134.3,20.742 	"/>
	
		<rect x="132.983" y="24.44" transform="matrix(-0.9774 -0.2115 0.2115 -0.9774 258.9438 77.8788)" fill="#882201" width="1.307" height="1.306"/>
	
		<rect x="132.651" y="27.311" transform="matrix(-0.9995 -0.0302 0.0302 -0.9995 265.4673 59.7017)" fill="#882201" width="1.067" height="1.069"/>
	
		<rect x="134.825" y="27.281" transform="matrix(0.9481 0.3181 -0.3181 0.9481 15.8563 -41.5931)" fill="#F38B00" width="0.961" height="0.964"/>
	<polygon fill="#F38B00" points="153.87,15.417 153.357,17.953 155.887,18.467 156.407,15.934 	"/>
	
		<rect x="158.522" y="17.029" transform="matrix(0.3441 -0.9389 0.9389 0.3441 87.6251 162.0733)" fill="#FBC04E" width="2.586" height="2.582"/>
	
		<rect x="148.976" y="15.297" transform="matrix(0.0133 -0.9999 0.9999 0.0133 131.6831 166.3871)" fill="#FBC04E" width="2.348" height="2.346"/>
	<polygon fill="#F38B00" points="144.399,16.157 144.899,18.237 146.975,17.745 146.483,15.666 	"/>
	<polygon fill="#FBC04E" points="140.783,18.17 141.665,19.754 143.25,18.876 142.37,17.287 	"/>
	
		<rect x="138.452" y="20.136" transform="matrix(-0.7334 -0.6798 0.6798 -0.7334 227.0875 130.8345)" fill="#F38B00" width="1.495" height="1.5"/>
	
		<rect x="136.729" y="22.747" transform="matrix(-0.8556 -0.5177 0.5177 -0.8556 242.7207 114.3839)" fill="#F38B00" width="1.173" height="1.175"/>
	
		<rect x="135.644" y="25.066" transform="matrix(-0.9356 -0.3531 0.3531 -0.9356 254.4602 97.5162)" fill="#F38B00" width="0.962" height="0.961"/>
	
		<rect x="137.733" y="26.015" transform="matrix(0.7854 0.619 -0.619 0.7854 46.0259 -79.8501)" fill="#882201" width="0.863" height="0.867"/>
	
		<rect x="156.873" y="22.065" transform="matrix(0.5183 -0.8552 0.8552 0.5183 56.2576 146.3382)" fill="#882201" width="2.325" height="2.326"/>
	
		<rect x="161.22" y="25.313" transform="matrix(0.6399 -0.7685 0.7685 0.6399 38.3723 133.6687)" fill="#F38B00" width="1.161" height="1.163"/>
	
		<rect x="153.117" y="20.333" transform="matrix(0.3524 -0.9358 0.9358 0.3524 79.8182 158.134)" fill="#882201" width="2.114" height="2.118"/>
	
		<rect x="149.283" y="19.483" transform="matrix(0.1117 -0.9937 0.9937 0.1117 113.1533 167.4658)" fill="#882201" width="1.924" height="1.922"/>
	<polygon fill="#882201" points="145.716,19.985 145.983,21.597 147.592,21.333 147.332,19.718 	"/>
	<polygon fill="#882201" points="142.643,21.517 143.269,22.71 144.46,22.093 143.837,20.897 	"/>
	
		<rect x="140.686" y="22.78" transform="matrix(-0.6309 -0.7759 0.7759 -0.6309 212.2171 147.5806)" fill="#882201" width="1.057" height="1.059"/>
	
		<rect x="139.104" y="24.388" transform="matrix(-0.7609 -0.6488 0.6488 -0.7609 229.6074 134.2454)" fill="#882201" width="0.862" height="0.868"/>
	
		<rect x="152.062" y="24.155" transform="matrix(0.4542 -0.8909 0.8909 0.4542 61.1774 149.8994)" fill="#FBC04E" width="1.731" height="1.731"/>
	
		<rect x="149.102" y="23.324" transform="matrix(0.1987 -0.9801 0.9801 0.1987 96.4882 166.1301)" fill="#F38B00" width="1.47" height="1.473"/>
	
		<rect x="146.255" y="23.432" transform="matrix(-0.1186 -0.9929 0.9929 -0.1186 140.407 172.7121)" fill="#F38B00" width="1.211" height="1.21"/>
	
		<rect x="143.937" y="24.083" transform="matrix(-0.3135 -0.9496 0.9496 -0.3135 166.3574 169.3909)" fill="#F38B00" width="0.95" height="0.951"/>
	
		<rect x="142.128" y="24.908" transform="matrix(-0.4875 -0.8731 0.8731 -0.4875 189.8979 162.0682)" fill="#F38B00" width="0.777" height="0.781"/>
	
		<rect x="123.831" y="8.905" transform="matrix(-0.9002 -0.4356 0.4356 -0.9002 233.4883 74.1548)" fill="#FBC04E" width="2.825" height="2.824"/>
	
		<rect x="128.077" y="5.058" transform="matrix(-0.7861 -0.6182 0.6182 -0.7861 226.5437 90.0899)" fill="#F38B00" width="1.57" height="1.568"/>
	
		<rect x="121.085" y="15.967" transform="matrix(-0.9834 -0.1813 0.1813 -0.9834 239.578 56.4009)" fill="#F38B00" width="2.564" height="2.567"/>
	
		<rect x="119.292" y="8.217" transform="matrix(-0.9553 -0.2957 0.2957 -0.9553 231.8791 52.7686)" fill="#FBC04E" width="1.275" height="1.268"/>
	<polygon fill="#FBC04E" points="116.436,17.88 118.74,17.986 118.85,15.681 116.541,15.573 	"/>
	
		<rect x="120.697" y="22.427" transform="matrix(-0.998 0.0627 -0.0627 -0.998 244.9687 39.493)" fill="#FBC04E" width="2.335" height="2.331"/>
	
		<rect x="121.973" y="28.336" transform="matrix(-0.9388 0.3445 -0.3445 -0.9388 247.3702 13.7012)" fill="#FBC04E" width="0.989" height="0.987"/>
</g>
</svg>
