<?xml version="1.0" encoding="utf-8"?>
<!-- Generator: Adobe Illustrator 16.0.4, SVG Export Plug-In . SVG Version: 6.00 Build 0)  -->
<!DOCTYPE svg PUBLIC "-//W3C//DTD SVG 1.1//EN" "http://www.w3.org/Graphics/SVG/1.1/DTD/svg11.dtd">
<svg version="1.1" id="Layer_1" xmlns="http://www.w3.org/2000/svg" xmlns:xlink="http://www.w3.org/1999/xlink" x="0px" y="0px"
	 width="165.497px" height="35.511px" viewBox="0 0 165.497 35.511" enable-background="new 0 0 165.497 35.511"
	 xml:space="preserve">
<g>
	<g>
		<path fill="#A7A7A0" d="M8.258,19.559c-0.189-0.683-0.909-1.761-2.342-1.761c-1.428,0-2.569,1.14-2.569,3.211
			c0,1.859,0.974,3.226,2.607,3.226c1.574,0,2.177-1.2,2.491-2.021l2.131,1.113c-0.808,2.234-2.855,3.229-4.66,3.229
			c-2.876,0-5.137-2.215-5.137-5.487c0-3.168,2.279-5.485,5.216-5.485c2.612,0,3.935,1.739,4.48,2.94L8.258,19.559z"/>
		<path fill="#A7A7A0" d="M16.44,18.265c0-0.467-0.346-0.831-0.842-0.831c-0.48,0-0.839,0.303-0.839,0.812
			c0,0.403,0.218,0.796,0.472,1.179C15.698,19.275,16.44,19.042,16.44,18.265 M14.326,21.523c-0.699,0.407-1.352,0.871-1.352,1.745
			c0,0.872,0.734,1.597,1.711,1.597c0.218,0,0.854-0.033,1.505-0.592L14.326,21.523z M19.793,21.164
			c-0.189,1.324-0.791,2.488-1.268,3.078c0.211,0.233,0.457,0.479,1.096,0.479c0.125,0,0.189,0,0.344-0.026v1.555
			c-0.451,0.023-0.516,0.049-0.795,0.049c-1.112,0-1.551-0.284-1.957-0.646c-0.696,0.468-1.411,0.829-2.637,0.829
			c-2.735,0-3.48-1.934-3.48-3.096c0-1.582,1.084-2.498,2.392-3.242c-0.201-0.312-0.481-0.794-0.481-1.617
			c0-1.633,1.13-2.556,2.532-2.556c1.614,0,2.529,1.189,2.529,2.315c0,0.795-0.448,1.943-2.063,2.508
			c0.2,0.369,1.237,1.884,1.428,2.097c0.45-0.671,0.513-1.149,0.577-1.728H19.793L19.793,21.164z"/>
		<path fill="#A7A7A0" d="M28.28,19.559c-0.188-0.683-0.916-1.761-2.346-1.761c-1.428,0-2.565,1.14-2.565,3.211
			c0,1.859,0.974,3.226,2.612,3.226c1.568,0,2.173-1.2,2.483-2.021l2.132,1.113c-0.807,2.234-2.86,3.229-4.662,3.229
			c-2.875,0-5.131-2.215-5.131-5.487c0-3.168,2.278-5.485,5.217-5.485c2.608,0,3.932,1.739,4.475,2.94L28.28,19.559z"/>
		<path fill="#A7A7A0" d="M40.414,17.196c-0.895,0-1.74,0.335-2.319,0.995c-0.458,0.533-0.916,1.49-0.916,3.02
			c0,1.41,0.354,2.529,0.916,3.19c0.723,0.87,1.672,0.954,2.229,0.954c3.024,0,3.106-2.812,3.124-3.953
			C43.448,19.884,43.284,17.196,40.414,17.196 M44.673,25.188c0,2.546,0,3.933-0.992,4.946c-0.622,0.662-1.827,1.158-3.414,1.158
			c-0.666,0-1.93-0.076-2.944-0.863c-1.054-0.807-1.241-1.863-1.3-2.652l1.259-0.251c0.169,1.06,0.461,2.694,3.132,2.694
			c1.858,0,2.709-0.766,2.955-2.176c0.079-0.52,0.107-2.566,0.123-3.205v-0.498c-0.098,0.354-0.185,0.645-0.574,1.056
			c-0.728,0.783-1.769,1.06-2.691,1.06c-2.84,0-4.29-2.363-4.29-5.221c0-3.313,1.863-5.093,4.307-5.093
			c1.736,0,2.921,0.971,3.249,2.048v-1.82h1.182v8.817H44.673z"/>
		<path fill="#A7A7A0" d="M47.985,26.25h-1.202v-9.878h1.202v1.572c0.625-1.308,1.658-1.734,2.881-1.734
			c0.295,0,0.436,0.021,0.682,0.058v1.094c-0.375-0.056-0.41-0.056-0.746-0.056c-0.333,0-1.305,0.019-2.027,0.784
			c-0.769,0.85-0.769,1.86-0.789,3.894L47.985,26.25L47.985,26.25z"/>
		<path fill="#A7A7A0" d="M56.083,17.175c-0.869,0-1.718,0.355-2.275,1.016c-0.853,0.997-0.932,2.463-0.932,3.271
			c0,2.812,1.445,3.953,3.143,3.953c2.173,0,3.19-1.717,3.206-4.015C59.224,20.841,59.272,17.175,56.083,17.175 M56.018,26.494
			c-2.876,0-4.45-2.277-4.45-5.051c0-2.566,1.308-5.3,4.493-5.3c3.125,0,4.452,2.563,4.473,5.114
			C60.554,24.255,58.819,26.494,56.018,26.494"/>
		<path fill="#A7A7A0" d="M69.624,26.25h-1.227v-1.783c-0.08,0.201-0.224,0.535-0.494,0.89c-0.764,0.954-1.843,1.121-2.622,1.121
			c-1.909,0-2.717-1.205-2.971-1.824c-0.328-0.769-0.345-1.782-0.345-3.44v-4.84h1.219v5.116c0.023,2.15,0.023,3.868,2.235,3.868
			c0.563,0,1.392-0.084,2.09-0.828c0.873-0.913,0.888-1.966,0.888-3.81v-4.347h1.227V26.25z"/>
		<path fill="#A7A7A0" d="M73.079,23.158c0.414,1.598,1.537,2.161,2.634,2.161c2.401,0,3.061-2.493,3.061-4.122
			c0-2.138-0.973-3.921-3.061-3.921c-2.671,0-2.755,2.985-2.778,3.896C72.913,21.876,72.913,22.542,73.079,23.158 M71.737,16.371
			h1.197v1.609c0.145-0.331,0.249-0.559,0.6-0.909c0.626-0.623,1.492-0.906,2.387-0.906c3.206,0,4.119,3.124,4.119,5.178
			c0,2.664-1.448,5.134-4.102,5.134c-1.269,0-2.445-0.558-3.004-1.87v6.877h-1.197V16.371z"/>
		<path fill="#A7A7A0" d="M87.411,23.158c0.41,1.598,1.525,2.161,2.625,2.161c2.406,0,3.065-2.493,3.065-4.122
			c0-2.138-0.972-3.921-3.065-3.921c-2.67,0-2.752,2.985-2.77,3.896C87.243,21.876,87.243,22.542,87.411,23.158 M86.063,16.371
			h1.203v1.609c0.145-0.331,0.242-0.559,0.598-0.909c0.615-0.623,1.49-0.906,2.383-0.906c3.209,0,4.119,3.124,4.119,5.178
			c0,2.664-1.449,5.134-4.103,5.134c-1.261,0-2.442-0.558-2.997-1.87v6.877h-1.203V16.371z"/>
	</g>
	<rect x="95.792" y="11.631" fill="#A7A7A0" width="1.227" height="14.619"/>
	<g>
		<path fill="#A7A7A0" d="M106.911,24.05c-0.226,0.457-0.354,0.725-0.766,1.183c-0.328,0.353-1.2,1.261-3.189,1.261
			c-3.188,0-4.531-2.568-4.531-5.113c0-3.292,2.005-5.236,4.72-5.236c2.771,0,3.581,1.966,3.769,2.482l-1.142,0.271
			c-0.539-1.286-1.778-1.656-2.668-1.656c-1.903,0-3.356,1.467-3.356,4.076c0,1.532,0.561,4.101,3.252,4.101
			c1.016,0,2.035-0.396,2.649-1.647L106.911,24.05z"/>
	</g>
	
		<rect x="154.679" y="6.38" transform="matrix(0.5545 0.8322 -0.8322 0.5545 74.9617 -126.106)" fill="#A7A7A0" width="1.169" height="1.163"/>
	
		<rect x="143.037" y="1.013" transform="matrix(-0.8306 0.5568 -0.5568 -0.8306 263.8055 -77.048)" fill="#A7A7A0" width="1.166" height="1.167"/>
	
		<rect x="163.324" y="13.588" transform="matrix(0.9475 0.3197 -0.3197 0.9475 13.1354 -51.6641)" fill="#A7A7A0" width="1.167" height="1.167"/>
	<polygon fill="#A7A7A0" points="131.14,33.537 131.54,34.637 132.633,34.231 132.235,33.134 	"/>
	
		<rect x="141.456" y="8.007" transform="matrix(0.4586 0.8886 -0.8886 0.4586 84.8161 -121.6407)" fill="#A7A7A0" width="1.569" height="1.566"/>
	
		<rect x="135.976" y="10.499" transform="matrix(0.6119 0.7909 -0.7909 0.6119 62.7563 -104.0458)" fill="#A7A7A0" width="2.85" height="2.853"/>
	
		<rect x="132.228" y="14.464" transform="matrix(0.7883 0.6153 -0.6153 0.7883 37.9645 -78.8216)" fill="#A7A7A0" width="2.597" height="2.591"/>
	
		<rect x="130.141" y="18.933" transform="matrix(0.9254 0.379 -0.379 0.9254 17.3849 -48.2483)" fill="#A7A7A0" width="2.206" height="2.202"/>
	<polygon fill="#A7A7A0" points="129.392,25.253 131.2,25.384 131.334,23.574 129.526,23.443 	"/>
	
		<rect x="129.725" y="27.446" transform="matrix(0.9913 -0.1316 0.1316 0.9913 -2.5715 17.4137)" fill="#A7A7A0" width="1.425" height="1.425"/>
	
		<rect x="130.401" y="30.579" transform="matrix(0.9507 -0.3102 0.3102 0.9507 -3.2053 42.1661)" fill="#A7A7A0" width="1.165" height="1.165"/>
	<polygon fill="#A7A7A0" points="131.094,8.004 133.631,10.432 136.064,7.896 133.524,5.46 	"/>
	
		<rect x="136.987" y="1.516" transform="matrix(0.6112 0.7914 -0.7914 0.6112 56.5275 -108.5352)" fill="#A7A7A0" width="3.512" height="3.514"/>
	<polygon fill="#A7A7A0" points="127.393,13.51 130.071,15.253 131.817,12.579 129.141,10.834 	"/>
	
		<rect x="125.476" y="17.075" transform="matrix(0.9462 0.3236 -0.3236 0.9462 12.8238 -40.0751)" fill="#A7A7A0" width="2.903" height="2.904"/>
	
		<rect x="124.84" y="22.657" transform="matrix(0.9985 0.0546 -0.0546 0.9985 1.4916 -6.8446)" fill="#A7A7A0" width="2.47" height="2.465"/>
	
		<rect x="125.734" y="27.832" transform="matrix(0.966 -0.2585 0.2585 0.966 -3.1493 33.741)" fill="#A7A7A0" width="2.029" height="2.032"/>
	
		<rect x="132.595" y="29.932" transform="matrix(-1 0.0092 -0.0092 -1 266.5288 59.7139)" fill="#A7A7A0" width="1.064" height="1.072"/>
	<polygon fill="#A7A7A0" points="148.174,10.796 148.545,13.644 151.394,13.269 151.024,10.421 	"/>
	
		<rect x="154.029" y="10.263" transform="matrix(-0.0197 0.9998 -0.9998 -0.0197 170.2275 -143.5048)" fill="#A7A7A0" width="2.871" height="2.872"/>
	
		<rect x="143.328" y="11.941" transform="matrix(0.3113 0.9503 -0.9503 0.3113 112.1986 -128.3263)" fill="#A7A7A0" width="2.613" height="2.608"/>
	<polygon fill="#A7A7A0" points="138.491,14.995 139.756,16.998 141.769,15.733 140.497,13.726 	"/>
	
		<rect x="135.824" y="17.325" transform="matrix(0.7445 0.6676 -0.6676 0.7445 47.1974 -86.666)" fill="#A7A7A0" width="2.019" height="2.016"/>
	<polygon fill="#A7A7A0" points="133.631,22.266 135.151,22.935 135.827,21.414 134.299,20.742 	"/>
	
		<rect x="132.981" y="24.435" transform="matrix(0.9775 0.2108 -0.2108 0.9775 8.289 -27.6004)" fill="#A7A7A0" width="1.307" height="1.307"/>
	
		<rect x="132.657" y="27.314" transform="matrix(0.9996 0.0293 -0.0293 0.9996 0.8729 -3.8894)" fill="#A7A7A0" width="1.067" height="1.069"/>
	
		<rect x="134.828" y="27.287" transform="matrix(-0.948 -0.3184 0.3184 -0.948 254.7352 97.1713)" fill="#A7A7A0" width="0.96" height="0.964"/>
	<polygon fill="#A7A7A0" points="153.87,15.417 153.357,17.953 155.887,18.466 156.407,15.934 	"/>
	
		<rect x="158.525" y="17.036" transform="matrix(-0.3443 0.9388 -0.9388 -0.3443 232.0573 -125.4056)" fill="#A7A7A0" width="2.586" height="2.581"/>
	
		<rect x="148.974" y="15.298" transform="matrix(-0.0133 0.9999 -0.9999 -0.0133 168.6161 -133.4442)" fill="#A7A7A0" width="2.348" height="2.346"/>
	<polygon fill="#A7A7A0" points="144.399,16.157 144.899,18.237 146.975,17.745 146.483,15.666 	"/>
	<polygon fill="#A7A7A0" points="140.784,18.17 141.665,19.753 143.25,18.876 142.37,17.287 	"/>
	
		<rect x="138.45" y="20.139" transform="matrix(0.7334 0.6798 -0.6798 0.7334 51.3102 -89.0569)" fill="#A7A7A0" width="1.494" height="1.5"/>
	
		<rect x="136.728" y="22.743" transform="matrix(0.8559 0.5171 -0.5171 0.8559 31.844 -67.6394)" fill="#A7A7A0" width="1.173" height="1.174"/>
	
		<rect x="135.642" y="25.068" transform="matrix(0.9359 0.3522 -0.3522 0.9359 17.7231 -46.3098)" fill="#A7A7A0" width="0.962" height="0.962"/>
	
		<rect x="137.737" y="26.013" transform="matrix(-0.7859 -0.6183 0.6183 -0.7859 230.4059 132.6645)" fill="#A7A7A0" width="0.862" height="0.868"/>
	
		<rect x="156.87" y="22.062" transform="matrix(-0.5183 0.8552 -0.8552 -0.5183 259.8054 -99.8839)" fill="#A7A7A0" width="2.325" height="2.326"/>
	
		<rect x="161.229" y="25.313" transform="matrix(-0.6398 0.7686 -0.7686 -0.6398 285.2314 -81.8999)" fill="#A7A7A0" width="1.16" height="1.164"/>
	
		<rect x="153.111" y="20.338" transform="matrix(-0.3524 0.9358 -0.9358 -0.3524 228.5268 -115.3376)" fill="#A7A7A0" width="2.114" height="2.118"/>
	
		<rect x="149.288" y="19.491" transform="matrix(-0.1117 0.9937 -0.9937 -0.1117 187.3508 -126.5757)" fill="#A7A7A0" width="1.924" height="1.922"/>
	<polygon fill="#A7A7A0" points="145.715,19.985 145.983,21.597 147.592,21.333 147.333,19.718 	"/>
	<polygon fill="#A7A7A0" points="142.643,21.517 143.269,22.71 144.459,22.093 143.836,20.897 	"/>
	
		<rect x="140.682" y="22.777" transform="matrix(0.6309 0.7759 -0.7759 0.6309 70.2079 -100.9605)" fill="#A7A7A0" width="1.057" height="1.059"/>
	
		<rect x="139.108" y="24.394" transform="matrix(0.7609 0.6488 -0.6488 0.7609 49.4686 -84.602)" fill="#A7A7A0" width="0.862" height="0.867"/>
	
		<rect x="152.063" y="24.154" transform="matrix(-0.454 0.891 -0.891 -0.454 244.6472 -99.8826)" fill="#A7A7A0" width="1.73" height="1.731"/>
	
		<rect x="149.108" y="23.319" transform="matrix(-0.1979 0.9802 -0.9802 -0.1979 203.0776 -118.0621)" fill="#A7A7A0" width="1.47" height="1.474"/>
	
		<rect x="146.251" y="23.438" transform="matrix(0.1186 0.9929 -0.9929 0.1186 153.3167 -124.6274)" fill="#A7A7A0" width="1.211" height="1.211"/>
	
		<rect x="143.93" y="24.083" transform="matrix(0.3128 0.9498 -0.9498 0.3128 122.5562 -120.2814)" fill="#A7A7A0" width="0.949" height="0.95"/>
	
		<rect x="142.121" y="24.914" transform="matrix(0.488 0.8728 -0.8728 0.488 95.0529 -111.4331)" fill="#A7A7A0" width="0.776" height="0.781"/>
	
		<rect x="123.826" y="8.899" transform="matrix(0.9002 0.4356 -0.4356 0.9002 16.9951 -53.5194)" fill="#A7A7A0" width="2.825" height="2.824"/>
	
		<rect x="128.072" y="5.051" transform="matrix(0.7861 0.6182 -0.6182 0.7861 31.1746 -78.4047)" fill="#A7A7A0" width="1.57" height="1.569"/>
	
		<rect x="121.088" y="15.968" transform="matrix(0.9834 0.1813 -0.1813 0.9834 5.1555 -21.8996)" fill="#A7A7A0" width="2.564" height="2.567"/>
	
		<rect x="119.29" y="8.216" transform="matrix(0.9553 0.2957 -0.2957 0.9553 7.9801 -35.0669)" fill="#A7A7A0" width="1.275" height="1.268"/>
	<polygon fill="#A7A7A0" points="116.436,17.88 118.741,17.986 118.85,15.681 116.542,15.573 	"/>
	
		<rect x="120.701" y="22.423" transform="matrix(0.998 -0.0627 0.0627 0.998 -1.2395 7.6896)" fill="#A7A7A0" width="2.336" height="2.332"/>
	
		<rect x="121.971" y="28.332" transform="matrix(0.9383 -0.3457 0.3457 0.9383 -2.4143 44.1144)" fill="#A7A7A0" width="0.989" height="0.988"/>
</g>
</svg>
